G04 Layer_Physical_Order=2*
G04 Layer_Color=32768*
%FSLAX24Y24*%
%MOIN*%
G70*
G01*
G75*
%ADD42C,0.0400*%
%ADD43C,0.0750*%
%ADD44C,0.0754*%
%ADD45C,0.1739*%
%ADD46C,0.0794*%
%ADD47C,0.0794*%
%ADD48C,0.0550*%
D42*
X37795Y31102D02*
Y46850D01*
X14409Y31102D02*
X37795Y31102D01*
X14409Y31102D02*
Y46850D01*
X37795Y46850D01*
D43*
X17476Y45500D02*
D03*
X18476D02*
D03*
X19476D02*
D03*
X20476D02*
D03*
X26400Y45500D02*
D03*
X27400D02*
D03*
X28400D02*
D03*
X29400D02*
D03*
D44*
X33900D02*
D03*
X35900D02*
D03*
X36800Y32300D02*
D03*
Y33300D02*
D03*
Y34300D02*
D03*
Y35300D02*
D03*
X21700Y37000D02*
D03*
Y35000D02*
D03*
X27100Y32300D02*
D03*
X28100D02*
D03*
Y33300D02*
D03*
X29100Y32300D02*
D03*
X27100Y33300D02*
D03*
D45*
X29800Y35500D02*
D03*
X15800Y43100D02*
D03*
X15748Y32948D02*
D03*
D46*
X33800Y42700D02*
D03*
Y40700D02*
D03*
D47*
X36000Y41700D02*
D03*
Y40700D02*
D03*
D48*
X20400Y34400D02*
D03*
X22950Y34700D02*
D03*
X14850Y38300D02*
D03*
X15900D02*
D03*
X18650Y38282D02*
D03*
X26050Y38950D02*
D03*
X32850Y31700D02*
D03*
X17700Y32000D02*
D03*
X33300Y36376D02*
D03*
X32528Y36400D02*
D03*
X25050Y44000D02*
D03*
X23100Y44500D02*
D03*
X23800D02*
D03*
X35500Y34257D02*
D03*
X17300Y33450D02*
D03*
X26950Y35950D02*
D03*
X26950Y35300D02*
D03*
X26950Y34700D02*
D03*
X22205Y38095D02*
D03*
X35500Y34900D02*
D03*
X35900Y34600D02*
D03*
X25950Y32400D02*
D03*
X26650Y41925D02*
D03*
X17726Y41925D02*
D03*
X26126Y36526D02*
D03*
X21900Y39150D02*
D03*
X24875Y41250D02*
D03*
M02*
