G04 Layer_Physical_Order=4*
G04 Layer_Color=65280*
%FSLAX24Y24*%
%MOIN*%
G70*
G01*
G75*
%ADD10R,0.0354X0.0315*%
%ADD12R,0.0354X0.0276*%
%ADD14R,0.0630X0.0630*%
%ADD22R,0.0315X0.0354*%
%ADD28R,0.0276X0.0354*%
%ADD29C,0.0100*%
%ADD30C,0.0200*%
%ADD31C,0.0120*%
%ADD32R,0.0551X0.0551*%
%ADD33C,0.0551*%
%ADD34C,0.0591*%
%ADD35R,0.0591X0.0591*%
%ADD36C,0.1969*%
%ADD37R,0.0591X0.0591*%
%ADD38C,0.0630*%
%ADD39R,0.0630X0.0630*%
%ADD40C,0.0630*%
%ADD41C,0.0320*%
%ADD49R,0.0768X0.0512*%
%ADD50R,0.0512X0.0768*%
%ADD51O,0.0138X0.0709*%
%ADD52R,0.0748X0.0748*%
%ADD53R,0.0709X0.0748*%
%ADD54R,0.0157X0.0532*%
%ADD55R,0.0827X0.0630*%
%ADD56C,0.0150*%
D10*
X24100Y42226D02*
D03*
Y41674D02*
D03*
X36800Y39276D02*
D03*
Y38724D02*
D03*
X34600Y39276D02*
D03*
Y38724D02*
D03*
X24900Y41674D02*
D03*
Y42226D02*
D03*
D12*
X26000Y33705D02*
D03*
Y34295D02*
D03*
D14*
X33800Y42700D02*
D03*
D22*
X26724Y37150D02*
D03*
X27276D02*
D03*
X25574Y37150D02*
D03*
X26126D02*
D03*
X35924Y43600D02*
D03*
X36476D02*
D03*
X25976Y33100D02*
D03*
X25424D02*
D03*
X33876Y43600D02*
D03*
X33324D02*
D03*
D28*
X27405Y34650D02*
D03*
X27995D02*
D03*
X27405Y35300D02*
D03*
X27995D02*
D03*
X27405Y35950D02*
D03*
X27995D02*
D03*
D29*
X19900Y37000D02*
X21700D01*
X17300Y34400D02*
X19900Y37000D01*
X17300Y33450D02*
Y34400D01*
X23100Y44500D02*
X23300D01*
X22205Y38095D02*
X22877Y37423D01*
Y37407D02*
Y37423D01*
Y37407D02*
X22950Y37334D01*
Y34700D02*
Y37334D01*
X33100Y34900D02*
X35500D01*
X31050Y36950D02*
X33100Y34900D01*
X28700Y36950D02*
X31050D01*
X27155Y38495D02*
X28700Y36950D01*
X26064Y38495D02*
X27155D01*
X27159Y37991D02*
X28516Y36634D01*
X26922Y37991D02*
X27159D01*
X30934Y36634D02*
X32978Y34590D01*
X28516Y36634D02*
X30934D01*
X25905Y38336D02*
X26064Y38495D01*
X24107Y40668D02*
Y41517D01*
X26667Y37209D02*
Y37991D01*
Y37209D02*
X26700Y37176D01*
X25424Y32926D02*
Y33100D01*
X25976D02*
X26500Y32576D01*
Y31950D02*
Y32576D01*
Y31950D02*
X26595Y31855D01*
X28655D01*
X29100Y32300D01*
X25500Y34205D02*
X26000Y33705D01*
X35400Y42300D02*
X36000Y41700D01*
X35400Y42300D02*
Y43076D01*
X35924Y43600D01*
Y44393D01*
X35918Y44400D02*
X35924Y44393D01*
X35918Y44400D02*
Y45482D01*
X35900Y45500D02*
X35918Y45482D01*
X33543Y32300D02*
X35500Y34257D01*
X29100Y32300D02*
X33543D01*
X27995Y35950D02*
X28666Y35280D01*
Y34784D02*
Y35280D01*
X29545Y33070D02*
Y33905D01*
X29220Y32745D02*
X29545Y33070D01*
X28916Y32745D02*
X29220D01*
X28470Y32300D02*
X28916Y32745D01*
X28100Y32300D02*
X28470D01*
X28666Y34784D02*
X29545Y33905D01*
X26950Y35950D02*
X27405D01*
X26950Y35950D02*
X26950Y35950D01*
X25500Y35374D02*
X27276Y37150D01*
X25500Y34205D02*
Y35374D01*
X35890Y34590D02*
X35900Y34600D01*
X32978Y34590D02*
X35890D01*
X25899Y37991D02*
X25905Y37985D01*
Y38336D01*
X25424Y32926D02*
X25950Y32400D01*
X25976Y33100D02*
Y33680D01*
X26000Y33705D01*
X25600Y41247D02*
Y42200D01*
X25800Y41164D02*
Y42500D01*
X23800Y44500D02*
X25800Y42500D01*
X23300Y44500D02*
X25600Y42200D01*
X25387Y40668D02*
Y41034D01*
X25600Y41247D01*
X25640Y40668D02*
Y41004D01*
X25800Y41164D01*
X26950Y35300D02*
X27405D01*
X27405Y35300D01*
X26950Y34700D02*
X27355D01*
X27405Y34650D01*
X27995Y33405D02*
Y34650D01*
Y33405D02*
X28100Y33300D01*
X27995Y35300D02*
X28345Y34950D01*
Y33684D02*
Y34950D01*
Y33684D02*
X28545Y33484D01*
Y33116D02*
Y33484D01*
X28175Y32745D02*
X28545Y33116D01*
X27916Y32745D02*
X28175D01*
X27470Y32300D02*
X27916Y32745D01*
X27100Y32300D02*
X27470D01*
D30*
X19454Y34400D02*
X20400D01*
X18144Y33090D02*
X19454Y34400D01*
X23750Y43000D02*
X24100Y42650D01*
Y42226D02*
Y42650D01*
X22080Y32704D02*
X22350Y32974D01*
Y34495D01*
X34666Y38724D02*
X34977Y39035D01*
X34600Y38724D02*
X34666D01*
X14850Y36215D02*
X16940Y34125D01*
X14850Y38300D02*
Y38450D01*
X17726Y41326D01*
X14850Y36215D02*
Y38300D01*
X26155Y37180D02*
Y37991D01*
X26150Y37176D02*
X26155Y37180D01*
X26000Y34295D02*
X26007D01*
X26377Y33925D01*
Y33918D02*
Y33925D01*
Y33918D02*
X26995Y33300D01*
X27100D01*
X33800Y42700D02*
Y43524D01*
X33876Y43600D01*
Y44393D01*
X33882Y44400D01*
Y45482D01*
X33900Y45500D01*
X33324Y43600D02*
Y43993D01*
X32918Y44400D02*
X33324Y43993D01*
X33800Y39282D02*
Y40700D01*
X33800Y39282D02*
X33800Y39282D01*
X33800Y39282D02*
X34593D01*
X34600Y39276D01*
X36800Y38724D02*
X36866D01*
X37250Y39108D01*
Y41450D01*
X36000Y42700D02*
X37250Y41450D01*
X33800Y38318D02*
X34193D01*
X34600Y38724D01*
X34977Y39035D02*
Y40523D01*
X33800Y41700D02*
X34977Y40523D01*
X36000Y42700D02*
Y43124D01*
X36098Y43223D01*
X36165D01*
X36476Y43534D01*
Y43600D01*
X33800Y41700D02*
Y41787D01*
X33285Y42302D02*
X33800Y41787D01*
X33285Y43600D02*
X33324D01*
X33285Y42302D02*
Y43600D01*
X22788Y31739D02*
Y32753D01*
Y31739D02*
X22828Y31700D01*
X21804D02*
X22828D01*
X21804D02*
X22080Y31976D01*
Y32704D01*
X22828Y31700D02*
X23772D01*
X24796D01*
X24520Y31976D02*
X24796Y31700D01*
X24520Y31976D02*
Y32704D01*
X17151Y33090D02*
X18144D01*
X16940Y33301D02*
X17151Y33090D01*
X16940Y33301D02*
Y34125D01*
X26126Y36526D02*
Y37150D01*
X17726Y41326D02*
Y41925D01*
Y41326D02*
X19901Y39150D01*
X21900D01*
X17476Y42175D02*
Y45500D01*
Y42175D02*
X17726Y41925D01*
X26400Y42175D02*
Y45500D01*
Y42175D02*
X26650Y41925D01*
X36000Y40076D02*
Y40700D01*
Y40076D02*
X36800Y39276D01*
X35769D02*
X36800D01*
X34227Y37734D02*
X35769Y39276D01*
X33461Y37734D02*
X34227D01*
X31885Y39310D02*
X33461Y37734D01*
X29265Y39310D02*
X31885D01*
X26650Y41925D02*
X29265Y39310D01*
X17476Y45500D02*
X17650D01*
X18150Y46000D01*
X25900D01*
X26400Y45500D01*
D31*
X24500Y42226D02*
X24900D01*
X24100D02*
X24500D01*
X24900D02*
X24900Y42226D01*
X24350Y40681D02*
X24363Y40668D01*
X24350Y40681D02*
Y41150D01*
X24624Y37124D02*
X24650Y37150D01*
X25574D01*
X25387Y37991D02*
X25414Y37964D01*
Y37610D02*
Y37964D01*
Y37610D02*
X25574Y37450D01*
Y37150D02*
Y37450D01*
X26450Y41350D02*
X26650D01*
X26155Y41055D02*
X26450Y41350D01*
X26155Y40668D02*
Y41055D01*
X24875Y40668D02*
Y41524D01*
X24900Y42226D02*
X25174D01*
X25350Y42050D01*
X24350Y41150D02*
X24480Y41280D01*
Y42206D02*
X24500Y42226D01*
X24480Y41280D02*
Y42206D01*
X25350Y41294D02*
Y42050D01*
X25131Y41075D02*
X25350Y41294D01*
X25131Y40668D02*
Y41075D01*
D32*
X17476Y45500D02*
D03*
X26400Y45500D02*
D03*
D33*
X18476Y45500D02*
D03*
X19476D02*
D03*
X20476D02*
D03*
X27400Y45500D02*
D03*
X28400D02*
D03*
X29400D02*
D03*
D34*
X33900D02*
D03*
X34900D02*
D03*
X36800Y33300D02*
D03*
Y34300D02*
D03*
Y35300D02*
D03*
Y36300D02*
D03*
X21700Y37000D02*
D03*
Y36000D02*
D03*
X28100Y32300D02*
D03*
Y33300D02*
D03*
X29100Y32300D02*
D03*
Y33300D02*
D03*
X27100D02*
D03*
D35*
X35900Y45500D02*
D03*
X27100Y32300D02*
D03*
D36*
X29800Y35500D02*
D03*
X15800Y43100D02*
D03*
X15748Y32948D02*
D03*
D37*
X36800Y32300D02*
D03*
X21700Y35000D02*
D03*
D38*
X33800Y41700D02*
D03*
Y40700D02*
D03*
D39*
X36000Y42700D02*
D03*
D40*
Y41700D02*
D03*
Y40700D02*
D03*
D41*
X20400Y34400D02*
D03*
X23750Y43000D02*
D03*
X19800Y36050D02*
D03*
X24624Y37124D02*
D03*
X26650Y41350D02*
D03*
X33350Y31700D02*
D03*
X22350Y34495D02*
D03*
X22950Y34700D02*
D03*
X29500Y38950D02*
D03*
X26900Y38949D02*
D03*
X14850Y38300D02*
D03*
X15900D02*
D03*
X18650Y38282D02*
D03*
X18050Y38300D02*
D03*
X26050Y38950D02*
D03*
X32850Y31700D02*
D03*
X17700Y32000D02*
D03*
X31050Y31700D02*
D03*
X36250Y31700D02*
D03*
X20900Y39600D02*
D03*
X15974Y41224D02*
D03*
X33700Y37300D02*
D03*
X33300Y36376D02*
D03*
X32528Y36400D02*
D03*
X25050Y44000D02*
D03*
X23100Y44500D02*
D03*
X23800D02*
D03*
X35500Y34257D02*
D03*
X17300Y33450D02*
D03*
X26950Y35950D02*
D03*
X26950Y35300D02*
D03*
X26950Y34700D02*
D03*
X22205Y38095D02*
D03*
X35500Y34900D02*
D03*
X35900Y34600D02*
D03*
X25950Y32400D02*
D03*
X26650Y41925D02*
D03*
X17726Y41925D02*
D03*
X26126Y36526D02*
D03*
X21900Y39150D02*
D03*
X18200Y31640D02*
D03*
X24875Y41250D02*
D03*
D49*
X33882Y44400D02*
D03*
X32918D02*
D03*
D50*
X33800Y39282D02*
D03*
Y38318D02*
D03*
D51*
X23596Y40668D02*
D03*
X23852D02*
D03*
X24107D02*
D03*
X24363D02*
D03*
X24619D02*
D03*
X24875D02*
D03*
X25131D02*
D03*
X25387D02*
D03*
X25643D02*
D03*
X25899D02*
D03*
X26155D02*
D03*
X26411D02*
D03*
X26667D02*
D03*
X26922D02*
D03*
X23596Y37991D02*
D03*
X23852D02*
D03*
X24107D02*
D03*
X24363D02*
D03*
X24619D02*
D03*
X24875D02*
D03*
X25131D02*
D03*
X25387D02*
D03*
X25643D02*
D03*
X25899D02*
D03*
X26155D02*
D03*
X26411D02*
D03*
X26667D02*
D03*
X26922D02*
D03*
D52*
X22828Y31700D02*
D03*
X23772D02*
D03*
D53*
X21804D02*
D03*
X24796D02*
D03*
D54*
X23300Y32753D02*
D03*
X23556D02*
D03*
X23812D02*
D03*
X23044D02*
D03*
X22788D02*
D03*
D55*
X24520Y32704D02*
D03*
X22080D02*
D03*
D56*
X23102Y37501D02*
X23300Y37302D01*
X23102Y37501D02*
Y40180D01*
X23352Y37604D02*
Y39750D01*
Y37604D02*
X23554Y37402D01*
X23102Y40180D02*
X23590Y40668D01*
X23852Y40250D02*
Y40668D01*
X23352Y39750D02*
X23852Y40250D01*
X23554Y32755D02*
X23556Y32753D01*
X23554Y32755D02*
Y37402D01*
X23300Y32753D02*
Y37302D01*
M02*
