M48
;Layer_Color=9474304
;FILE_FORMAT=2:4
INCH,TZ
;TYPE=PLATED
T1F00S00C0.0150
T2F00S00C0.0350
T3F00S00C0.0354
T4F00S00C0.0394
T5F00S00C0.1339
%
T01
X14850Y38300
X15900
X18050
X18650Y38282
X19800Y36050
X20400Y34400
X22350Y34495
X22950Y34700
X26950
X26950Y35300
X26950Y35950
X26126Y36526
X24624Y37124
X26050Y38950
X26900Y38949
X29500Y38950
X26650Y41350
Y41925
X24875Y41250
X23750Y43000
X23800Y44500
X23100
X25050Y44000
X21900Y39150
X22205Y38095
X20900Y39600
X17726Y41925
X15974Y41224
X17300Y33450
X17700Y32000
X18200Y31640
X25950Y32400
X31050Y31700
X32850Y31700
X33350
X36250
X35900Y34600
X35500Y34900
Y34257
X33300Y36376
X32528Y36400
X33700Y37300
T02
X17476Y45500
X18476
X19476
X20476
X26400Y45500
X27400
X28400
X29400
T03
X21700Y35000
Y36000
Y37000
X27100Y33300
Y32300
X28100
Y33300
X29100
Y32300
X36800
Y33300
Y34300
Y35300
Y36300
X35900Y45500
X34900
X33900
T04
X33800Y40700
Y41700
Y42700
X36000
Y41700
Y40700
T05
X15748Y32948
X15800Y43100
X29800Y35500
M30
