G04 Layer_Physical_Order=1*
G04 Layer_Color=255*
%FSLAX24Y24*%
%MOIN*%
G70*
G01*
G75*
%ADD10R,0.0354X0.0315*%
%ADD11R,0.0394X0.0315*%
%ADD12R,0.0354X0.0276*%
%ADD13R,0.0472X0.0472*%
%ADD14R,0.0630X0.0630*%
%ADD15R,0.0472X0.0472*%
%ADD16R,0.0630X0.0630*%
%ADD17R,0.2205X0.0827*%
G04:AMPARAMS|DCode=18|XSize=25.6mil|YSize=65mil|CornerRadius=1.9mil|HoleSize=0mil|Usage=FLASHONLY|Rotation=270.000|XOffset=0mil|YOffset=0mil|HoleType=Round|Shape=RoundedRectangle|*
%AMROUNDEDRECTD18*
21,1,0.0256,0.0611,0,0,270.0*
21,1,0.0218,0.0650,0,0,270.0*
1,1,0.0038,-0.0306,-0.0109*
1,1,0.0038,-0.0306,0.0109*
1,1,0.0038,0.0306,0.0109*
1,1,0.0038,0.0306,-0.0109*
%
%ADD18ROUNDEDRECTD18*%
%ADD19R,0.0315X0.0315*%
%ADD20R,0.0610X0.0512*%
%ADD21R,0.0315X0.0394*%
%ADD22R,0.0315X0.0354*%
%ADD23O,0.0217X0.0650*%
%ADD24O,0.0650X0.0217*%
%ADD25O,0.0571X0.0236*%
%ADD26O,0.0236X0.0748*%
%ADD27R,0.0315X0.0315*%
%ADD28R,0.0276X0.0354*%
%ADD29C,0.0100*%
%ADD30C,0.0200*%
%ADD31C,0.0120*%
%ADD32R,0.0551X0.0551*%
%ADD33C,0.0551*%
%ADD34C,0.0591*%
%ADD35R,0.0591X0.0591*%
%ADD36C,0.1969*%
%ADD37R,0.0591X0.0591*%
%ADD38C,0.0630*%
%ADD39R,0.0630X0.0630*%
%ADD40C,0.0630*%
%ADD41C,0.0320*%
D10*
X20400Y34824D02*
D03*
Y35376D02*
D03*
X31800Y39976D02*
D03*
Y39424D02*
D03*
X32500Y39976D02*
D03*
Y39424D02*
D03*
X17100Y32376D02*
D03*
Y31824D02*
D03*
X16550Y41776D02*
D03*
Y41224D02*
D03*
X17300Y41776D02*
D03*
Y41224D02*
D03*
X26224Y41776D02*
D03*
Y41224D02*
D03*
X25474Y41776D02*
D03*
Y41224D02*
D03*
D11*
X16576Y40045D02*
D03*
Y39455D02*
D03*
X17326Y39455D02*
D03*
Y40045D02*
D03*
X25500D02*
D03*
Y39455D02*
D03*
X26250Y39455D02*
D03*
Y40045D02*
D03*
D12*
X23000Y37505D02*
D03*
Y38095D02*
D03*
X20726Y40724D02*
D03*
Y41276D02*
D03*
X24400Y45105D02*
D03*
Y45695D02*
D03*
X29650Y40724D02*
D03*
Y41276D02*
D03*
X22500Y45105D02*
D03*
Y45695D02*
D03*
D13*
X14913Y39200D02*
D03*
X15700D02*
D03*
X23837Y39200D02*
D03*
X24624D02*
D03*
D14*
X15306Y40499D02*
D03*
X24231Y40499D02*
D03*
X33800Y42700D02*
D03*
D15*
X22976Y41413D02*
D03*
Y42200D02*
D03*
X31900Y41413D02*
D03*
Y42200D02*
D03*
X15100Y35687D02*
D03*
Y34900D02*
D03*
X17800Y35687D02*
D03*
Y34900D02*
D03*
D16*
X21676Y41806D02*
D03*
X30601Y41806D02*
D03*
X16399Y35294D02*
D03*
X19099Y35294D02*
D03*
D17*
X33970Y38100D02*
D03*
X30230D02*
D03*
D18*
X18088Y33950D02*
D03*
Y33450D02*
D03*
Y32950D02*
D03*
Y32450D02*
D03*
X20312Y33950D02*
D03*
Y33450D02*
D03*
Y32950D02*
D03*
Y32450D02*
D03*
D19*
X23100Y45085D02*
D03*
Y45715D02*
D03*
X23800Y45085D02*
D03*
Y45715D02*
D03*
D20*
X22035Y33786D02*
D03*
Y32014D02*
D03*
X25165Y33786D02*
D03*
Y32014D02*
D03*
D21*
X16395Y36700D02*
D03*
X15805D02*
D03*
X18505Y37500D02*
D03*
X19095D02*
D03*
X19095Y36700D02*
D03*
X18505D02*
D03*
X15805Y37500D02*
D03*
X16395D02*
D03*
D22*
X25176Y37600D02*
D03*
X24624D02*
D03*
X25176Y38300D02*
D03*
X24624D02*
D03*
X19524Y39100D02*
D03*
X20076D02*
D03*
X28449Y39100D02*
D03*
X29000D02*
D03*
X18976Y39100D02*
D03*
X18424D02*
D03*
X27900Y39100D02*
D03*
X27349D02*
D03*
X32176Y31700D02*
D03*
X31624D02*
D03*
X32624Y36800D02*
D03*
X33176D02*
D03*
X33724D02*
D03*
X34276D02*
D03*
D23*
X34102Y35754D02*
D03*
X33787D02*
D03*
X33472D02*
D03*
X33157D02*
D03*
X32843D02*
D03*
X32528D02*
D03*
X32213D02*
D03*
X31898D02*
D03*
Y32446D02*
D03*
X32213D02*
D03*
X32528D02*
D03*
X32843D02*
D03*
X33157D02*
D03*
X33472D02*
D03*
X33787D02*
D03*
X34102D02*
D03*
D24*
X31346Y35202D02*
D03*
Y34887D02*
D03*
Y34572D02*
D03*
Y34257D02*
D03*
Y33943D02*
D03*
Y33628D02*
D03*
Y33313D02*
D03*
Y32998D02*
D03*
X34654D02*
D03*
Y33313D02*
D03*
Y33628D02*
D03*
Y33943D02*
D03*
Y34257D02*
D03*
Y34572D02*
D03*
Y34887D02*
D03*
Y35202D02*
D03*
D25*
X23027Y36750D02*
D03*
Y36250D02*
D03*
Y35750D02*
D03*
Y35250D02*
D03*
X25173Y36750D02*
D03*
Y36250D02*
D03*
Y35750D02*
D03*
Y35250D02*
D03*
D26*
X19726Y41925D02*
D03*
X19226D02*
D03*
X18726D02*
D03*
X18226D02*
D03*
X19726Y40075D02*
D03*
X19226D02*
D03*
X18726D02*
D03*
X18226D02*
D03*
X28650Y41925D02*
D03*
X28150D02*
D03*
X27650D02*
D03*
X27150D02*
D03*
X28650Y40075D02*
D03*
X28150D02*
D03*
X27650D02*
D03*
X27150D02*
D03*
D27*
X35715Y31700D02*
D03*
X35085D02*
D03*
X36185Y38100D02*
D03*
X36815D02*
D03*
D28*
X34395Y31700D02*
D03*
X33805D02*
D03*
X36795Y38700D02*
D03*
X36205D02*
D03*
D29*
X28100Y33300D02*
X28545Y33745D01*
X21350Y33650D02*
Y34650D01*
X20650Y32950D02*
X21350Y33650D01*
X20312Y32950D02*
X20650D01*
X20312Y33450D02*
X20466D01*
X20787Y33771D02*
Y35613D01*
X20040Y36360D02*
X20787Y35613D01*
X19410Y36360D02*
X20040D01*
X19095Y36045D02*
X19410Y36360D01*
X19095Y35950D02*
Y36045D01*
Y35950D02*
Y37500D01*
Y35298D02*
Y35950D01*
X20466Y33450D02*
X20787Y33771D01*
X19095Y35298D02*
X19099Y35294D01*
X22950Y34700D02*
X24900D01*
X25100Y34500D01*
X27064Y39551D02*
X27261D01*
X26590Y39077D02*
X27064Y39551D01*
X26590Y39015D02*
Y39077D01*
X26225Y38650D02*
X26590Y39015D01*
X16828Y38050D02*
X18205Y39427D01*
X16355Y38050D02*
X16828D01*
X15805Y37500D02*
X16355Y38050D01*
X18505Y37500D02*
X19655Y38650D01*
X26225D01*
X22287Y40724D02*
X22976Y41413D01*
X16395Y36700D02*
Y37500D01*
X16395Y36700D02*
X16395Y36700D01*
X16395Y35298D02*
Y36700D01*
Y35298D02*
X16399Y35294D01*
X18088Y32950D02*
Y33450D01*
X22500Y45695D02*
X23080D01*
X23100Y45715D01*
X23800Y45715D02*
X24380D01*
X23100Y44500D02*
Y45085D01*
X23800Y44500D02*
Y45085D01*
X21350Y34650D02*
X21700Y35000D01*
X22450Y35750D01*
X23027D01*
X22450Y36250D02*
X23027D01*
X21700Y37000D02*
X22450Y36250D01*
X23000Y36777D02*
Y37505D01*
Y36777D02*
X23027Y36750D01*
X33805Y31700D02*
Y32429D01*
X33787Y32446D02*
X33805Y32429D01*
X34395Y31700D02*
X35085D01*
X35085Y31700D01*
X34102Y32446D02*
X35946D01*
X36800Y33300D01*
X34654Y32998D02*
X35498D01*
X36800Y34300D01*
X34654Y33313D02*
X35163D01*
X36800Y34950D01*
Y35300D01*
X36815Y38100D02*
Y38680D01*
X36795Y38700D02*
X36815Y38680D01*
X32500Y39424D02*
X33824Y38100D01*
X33970D01*
X32213Y35754D02*
Y39137D01*
X32500Y39424D01*
X31898Y35754D02*
Y39327D01*
X31800Y39424D02*
X31898Y39327D01*
X30476Y38100D02*
X31800Y39424D01*
X30230Y38100D02*
X30476D01*
X34654Y34257D02*
X35500D01*
X17300Y33450D02*
X18088D01*
X17300Y33450D02*
X17300Y33450D01*
X20312Y32450D02*
Y32950D01*
X31212Y40724D02*
X31900Y41413D01*
X30137Y32446D02*
X31898D01*
X29545Y31855D02*
X30137Y32446D01*
X28545Y31855D02*
X29545D01*
X28100Y32300D02*
X28545Y31855D01*
X29748Y32998D02*
X31346D01*
X29500Y32750D02*
X29748Y32998D01*
X27550Y32750D02*
X29500D01*
X27100Y32300D02*
X27550Y32750D01*
X29284Y33745D02*
X29730Y33300D01*
X31334D01*
X31346Y33313D01*
X26882Y36018D02*
X26950Y35950D01*
X25826Y35300D02*
X26950D01*
X25723Y34700D02*
X26950D01*
X25173Y35250D02*
X25723Y34700D01*
X29685Y33628D02*
X31346D01*
X29121Y34192D02*
X29685Y33628D01*
X25408Y34192D02*
X29121D01*
X22205Y38095D02*
X23000D01*
X25100Y34500D02*
X25408Y34192D01*
X34654Y34887D02*
X35487D01*
X35500Y34900D01*
X34654Y34572D02*
X35872D01*
X35900Y34600D01*
X25373Y35754D02*
X25826Y35300D01*
X25173Y35750D02*
X25200D01*
X25173Y36250D02*
X25400D01*
X25632Y36018D01*
X26882D01*
X25165Y32014D02*
X25564D01*
X25950Y32400D01*
X28545Y33745D02*
X29284D01*
X27418Y39843D02*
X27650Y40075D01*
X27418Y39708D02*
Y39843D01*
X27261Y39551D02*
X27418Y39708D01*
X24231Y40499D02*
X24685Y40045D01*
X25500D01*
X26250Y40045D02*
X26280Y40075D01*
X27150D01*
X26250Y40045D02*
X26250Y40045D01*
X25500Y40045D02*
X26250D01*
X29000Y41925D02*
X29650Y41276D01*
X28650Y41925D02*
X29000D01*
X29000Y40075D02*
X29650Y40724D01*
X28650Y40075D02*
X29000D01*
X30181Y41806D02*
X30601D01*
X29650Y41276D02*
X30181Y41806D01*
X29650Y40724D02*
X31212D01*
X26400Y43045D02*
X26445Y43000D01*
X20726Y40724D02*
X22287D01*
X20726Y41276D02*
X21256Y41806D01*
X21676D01*
X19726Y40075D02*
X20076D01*
X20726Y40724D01*
X20076Y41925D02*
X20726Y41276D01*
X19726Y41925D02*
X20076D01*
X16576Y40045D02*
X17326D01*
X17326Y40045D01*
X17355Y40075D02*
X18226D01*
X17326Y40045D02*
X17355Y40075D01*
X15306Y40499D02*
X15760Y40045D01*
X16576D01*
X18209Y39423D02*
X18494Y39708D01*
Y39843D01*
X18726Y40075D01*
X17743Y33950D02*
X18088D01*
X16399Y35294D02*
X17743Y33950D01*
X18726Y41925D02*
Y45250D01*
X18476Y45500D02*
X18726Y45250D01*
X19226D02*
X19476Y45500D01*
X19226Y41925D02*
Y45250D01*
X27650Y41925D02*
Y45250D01*
X27400Y45500D02*
X27650Y45250D01*
X28150Y41925D02*
Y45250D01*
X28400Y45500D01*
D30*
X25605Y43045D02*
X26400D01*
X25050Y43600D02*
X25605Y43045D01*
X22350Y34495D02*
Y34659D01*
Y34331D02*
Y34495D01*
X18505Y35555D02*
Y36700D01*
X24624Y37124D02*
Y37600D01*
X26350Y41350D02*
X26650D01*
X26224Y41224D02*
X26350Y41350D01*
X33210Y31840D02*
X33350Y31700D01*
X33210Y31840D02*
Y31849D01*
X33157Y31902D02*
X33210Y31849D01*
X33157Y31902D02*
Y32446D01*
X22350Y34659D02*
X22941Y35250D01*
X22350Y34331D02*
X22481Y34200D01*
X24751D01*
X25165Y33786D01*
X22941Y35250D02*
X23027D01*
X29250Y38950D02*
X29500D01*
X29100Y39100D02*
X29250Y38950D01*
X29000Y39100D02*
X29100D01*
X26900Y38949D02*
X27198D01*
X27349Y39100D01*
X32500Y40400D02*
X33800Y41700D01*
X32500Y39976D02*
Y40400D01*
X32500Y39976D02*
X32500Y39976D01*
X31800Y39976D02*
X32500D01*
X14913Y38363D02*
Y39200D01*
X14850Y38300D02*
X14913Y38363D01*
X16476Y38300D02*
X17326Y39150D01*
X15447Y37847D02*
X15900Y38300D01*
X16476D01*
X18050D02*
X18424Y38674D01*
X18147Y37780D02*
X18976Y38608D01*
Y39100D01*
X26050Y38950D02*
X26250Y39150D01*
X32176Y31780D02*
X32255Y31700D01*
X32850D01*
X32843Y31707D02*
X32850Y31700D01*
X32843Y31707D02*
Y32446D01*
X17287Y31637D02*
X17290Y31640D01*
X17100Y31824D02*
X17287Y31637D01*
X17550Y32000D02*
X17700D01*
X17174Y32376D02*
X17550Y32000D01*
X17100Y32376D02*
X17174D01*
X35715Y31700D02*
X36250D01*
X31050D02*
X31050Y31700D01*
X31624D01*
X36185Y36915D02*
Y38100D01*
Y36915D02*
X36800Y36300D01*
X20576Y39600D02*
X20900D01*
X20076Y39100D02*
X20576Y39600D01*
X18424Y38674D02*
Y39100D01*
X15974Y41224D02*
X16550D01*
X34276Y36800D02*
Y37074D01*
X34050Y37300D02*
X34276Y37074D01*
X33400Y37300D02*
X34050D01*
X33176Y37076D02*
X33400Y37300D01*
X33176Y36800D02*
Y37076D01*
X33157Y35754D02*
Y36233D01*
X22850Y43950D02*
X25000D01*
X25050Y44000D01*
Y43600D02*
Y44000D01*
Y44455D01*
X24400Y45105D02*
X25050Y44455D01*
X26083Y36568D02*
X27900Y38385D01*
Y39100D01*
X17174Y32450D02*
X18088D01*
X17100Y32376D02*
X17174Y32450D01*
X20312Y33950D02*
X20400Y34038D01*
X25173Y36750D02*
X25176Y36753D01*
X24624Y37600D02*
Y38300D01*
X15100Y34900D02*
X15150D01*
X15805Y35605D02*
Y36700D01*
X15100Y34900D02*
X15805Y35605D01*
X17800Y34900D02*
X17850D01*
X18505Y35555D01*
X20400Y34038D02*
Y34824D01*
X22500Y45105D02*
X22500Y45105D01*
X24943Y39636D02*
X25125Y39455D01*
X25500D01*
X24214Y39636D02*
X24943D01*
X23837Y39259D02*
X24214Y39636D01*
X23837Y39200D02*
Y39259D01*
X26250Y39150D02*
Y39455D01*
X25474Y41224D02*
X26224D01*
X26650Y41925D02*
X27150D01*
X26374D02*
X26650D01*
X26224Y41776D02*
X26374Y41925D01*
X25474Y41776D02*
X26224D01*
X28400Y39100D02*
X28449D01*
X27900Y39100D02*
X28150Y39350D01*
Y40075D01*
Y39350D02*
X28400Y39100D01*
X19226Y39350D02*
X19476Y39100D01*
X19226Y39350D02*
Y40075D01*
X18976Y39100D02*
X19226Y39350D01*
X19476Y39100D02*
X19524D01*
X16550Y41776D02*
X17300D01*
X17450Y41925D01*
X17726D01*
X18226D01*
X16550Y41224D02*
X17300D01*
X17326Y39150D02*
Y39455D01*
X14913Y39200D02*
Y39259D01*
X15289Y39636D01*
X16019D02*
X16201Y39455D01*
X15289Y39636D02*
X16019D01*
X16201Y39455D02*
X16576D01*
X22500Y44300D02*
X22850Y43950D01*
X22500Y44300D02*
Y45105D01*
X25176Y37600D02*
Y38300D01*
Y36753D02*
Y37600D01*
X21850Y39200D02*
X23837D01*
X32836Y32440D02*
X32843Y32446D01*
X32176Y31780D02*
X32213Y31817D01*
Y32446D01*
X25355Y36568D02*
X26083D01*
X25173Y36750D02*
X25355Y36568D01*
X18147Y37159D02*
Y37780D01*
Y37159D02*
X18150Y37156D01*
Y37055D02*
Y37156D01*
Y37055D02*
X18505Y36700D01*
X15447Y37057D02*
X15805Y36700D01*
X15447Y37057D02*
Y37847D01*
X33176Y36734D02*
Y36800D01*
X33157Y36233D02*
X33347Y36423D01*
X33416D01*
X33724Y36731D01*
X32528Y35754D02*
Y36800D01*
X17290Y31640D02*
X18200D01*
X35800Y38700D02*
X36205D01*
X33800Y40700D02*
X35800Y38700D01*
D31*
X19750Y36100D02*
X20474Y35376D01*
X20400D02*
X20474D01*
X33835Y36350D02*
X34276Y36790D01*
X33788Y36350D02*
X33835D01*
X33438Y36000D02*
X33788Y36350D01*
X33438Y36000D02*
X33472D01*
Y35754D02*
Y36000D01*
X34276Y36790D02*
Y36800D01*
X32843Y35754D02*
Y36401D01*
X33176Y36734D01*
D32*
X17476Y45500D02*
D03*
X26400Y45500D02*
D03*
D33*
X18476Y45500D02*
D03*
X19476D02*
D03*
X20476D02*
D03*
X27400Y45500D02*
D03*
X28400D02*
D03*
X29400D02*
D03*
D34*
X33900D02*
D03*
X34900D02*
D03*
X36800Y33300D02*
D03*
Y34300D02*
D03*
Y35300D02*
D03*
Y36300D02*
D03*
X21700Y37000D02*
D03*
Y36000D02*
D03*
X28100Y32300D02*
D03*
Y33300D02*
D03*
X29100Y32300D02*
D03*
Y33300D02*
D03*
X27100D02*
D03*
D35*
X35900Y45500D02*
D03*
X27100Y32300D02*
D03*
D36*
X29800Y35500D02*
D03*
X15800Y43100D02*
D03*
X15748Y32948D02*
D03*
D37*
X36800Y32300D02*
D03*
X21700Y35000D02*
D03*
D38*
X33800Y41700D02*
D03*
Y40700D02*
D03*
D39*
X36000Y42700D02*
D03*
D40*
Y41700D02*
D03*
Y40700D02*
D03*
D41*
X20400Y34400D02*
D03*
X23750Y43000D02*
D03*
X19800Y36050D02*
D03*
X24624Y37124D02*
D03*
X26650Y41350D02*
D03*
X33350Y31700D02*
D03*
X22350Y34495D02*
D03*
X22950Y34700D02*
D03*
X29500Y38950D02*
D03*
X26900Y38949D02*
D03*
X14850Y38300D02*
D03*
X15900D02*
D03*
X18650Y38282D02*
D03*
X18050Y38300D02*
D03*
X26050Y38950D02*
D03*
X32850Y31700D02*
D03*
X17700Y32000D02*
D03*
X31050Y31700D02*
D03*
X36250Y31700D02*
D03*
X20900Y39600D02*
D03*
X15974Y41224D02*
D03*
X33700Y37300D02*
D03*
X33300Y36376D02*
D03*
X32528Y36400D02*
D03*
X25050Y44000D02*
D03*
X23100Y44500D02*
D03*
X23800D02*
D03*
X35500Y34257D02*
D03*
X17300Y33450D02*
D03*
X26950Y35950D02*
D03*
X26950Y35300D02*
D03*
X26950Y34700D02*
D03*
X22205Y38095D02*
D03*
X35500Y34900D02*
D03*
X35900Y34600D02*
D03*
X25950Y32400D02*
D03*
X26650Y41925D02*
D03*
X17726Y41925D02*
D03*
X26126Y36526D02*
D03*
X21900Y39150D02*
D03*
X18200Y31640D02*
D03*
X24875Y41250D02*
D03*
M02*
