G04 Layer_Color=16711935*
%FSLAX24Y24*%
%MOIN*%
G70*
G01*
G75*
%ADD63R,0.0434X0.0395*%
%ADD65R,0.0434X0.0356*%
%ADD67R,0.0710X0.0710*%
%ADD75R,0.0395X0.0434*%
%ADD81R,0.0356X0.0434*%
%ADD82R,0.0631X0.0631*%
%ADD83C,0.0631*%
%ADD84C,0.0671*%
%ADD85R,0.0671X0.0671*%
%ADD86C,0.2049*%
%ADD87R,0.0671X0.0671*%
%ADD88C,0.0710*%
%ADD89R,0.0710X0.0710*%
%ADD90C,0.0710*%
%ADD91C,0.0400*%
%ADD92R,0.0848X0.0592*%
%ADD93R,0.0592X0.0848*%
%ADD94O,0.0218X0.0789*%
%ADD95R,0.0828X0.0828*%
%ADD96R,0.0789X0.0828*%
%ADD97R,0.0237X0.0612*%
%ADD98R,0.0907X0.0710*%
D63*
X24100Y42226D02*
D03*
Y41674D02*
D03*
X36800Y39276D02*
D03*
Y38724D02*
D03*
X34600Y39276D02*
D03*
Y38724D02*
D03*
X24900Y41674D02*
D03*
Y42226D02*
D03*
D65*
X26000Y33705D02*
D03*
Y34295D02*
D03*
D67*
X33800Y42700D02*
D03*
D75*
X26724Y37150D02*
D03*
X27276D02*
D03*
X25574Y37150D02*
D03*
X26126D02*
D03*
X35924Y43600D02*
D03*
X36476D02*
D03*
X25976Y33100D02*
D03*
X25424D02*
D03*
X33876Y43600D02*
D03*
X33324D02*
D03*
D81*
X27405Y34650D02*
D03*
X27995D02*
D03*
X27405Y35300D02*
D03*
X27995D02*
D03*
X27405Y35950D02*
D03*
X27995D02*
D03*
D82*
X17476Y45500D02*
D03*
X26400Y45500D02*
D03*
D83*
X18476Y45500D02*
D03*
X19476D02*
D03*
X20476D02*
D03*
X27400Y45500D02*
D03*
X28400D02*
D03*
X29400D02*
D03*
D84*
X33900D02*
D03*
X34900D02*
D03*
X36800Y33300D02*
D03*
Y34300D02*
D03*
Y35300D02*
D03*
Y36300D02*
D03*
X21700Y37000D02*
D03*
Y36000D02*
D03*
X28100Y32300D02*
D03*
Y33300D02*
D03*
X29100Y32300D02*
D03*
Y33300D02*
D03*
X27100D02*
D03*
D85*
X35900Y45500D02*
D03*
X27100Y32300D02*
D03*
D86*
X29800Y35500D02*
D03*
X15800Y43100D02*
D03*
X15748Y32948D02*
D03*
D87*
X36800Y32300D02*
D03*
X21700Y35000D02*
D03*
D88*
X33800Y41700D02*
D03*
Y40700D02*
D03*
D89*
X36000Y42700D02*
D03*
D90*
Y41700D02*
D03*
Y40700D02*
D03*
D91*
X20400Y34400D02*
D03*
X23750Y43000D02*
D03*
X19800Y36050D02*
D03*
X24624Y37124D02*
D03*
X26650Y41350D02*
D03*
X33350Y31700D02*
D03*
X22350Y34495D02*
D03*
X22950Y34700D02*
D03*
X29500Y38950D02*
D03*
X26900Y38949D02*
D03*
X14850Y38300D02*
D03*
X15900D02*
D03*
X18650Y38282D02*
D03*
X18050Y38300D02*
D03*
X26050Y38950D02*
D03*
X32850Y31700D02*
D03*
X17700Y32000D02*
D03*
X31050Y31700D02*
D03*
X36250Y31700D02*
D03*
X20900Y39600D02*
D03*
X15974Y41224D02*
D03*
X33700Y37300D02*
D03*
X33300Y36376D02*
D03*
X32528Y36400D02*
D03*
X25050Y44000D02*
D03*
X23100Y44500D02*
D03*
X23800D02*
D03*
X35500Y34257D02*
D03*
X17300Y33450D02*
D03*
X26950Y35950D02*
D03*
X26950Y35300D02*
D03*
X26950Y34700D02*
D03*
X22205Y38095D02*
D03*
X35500Y34900D02*
D03*
X35900Y34600D02*
D03*
X25950Y32400D02*
D03*
X26650Y41925D02*
D03*
X17726Y41925D02*
D03*
X26126Y36526D02*
D03*
X21900Y39150D02*
D03*
X18200Y31640D02*
D03*
X24875Y41250D02*
D03*
D92*
X33882Y44400D02*
D03*
X32918D02*
D03*
D93*
X33800Y39282D02*
D03*
Y38318D02*
D03*
D94*
X23596Y40668D02*
D03*
X23852D02*
D03*
X24107D02*
D03*
X24363D02*
D03*
X24619D02*
D03*
X24875D02*
D03*
X25131D02*
D03*
X25387D02*
D03*
X25643D02*
D03*
X25899D02*
D03*
X26155D02*
D03*
X26411D02*
D03*
X26667D02*
D03*
X26922D02*
D03*
X23596Y37991D02*
D03*
X23852D02*
D03*
X24107D02*
D03*
X24363D02*
D03*
X24619D02*
D03*
X24875D02*
D03*
X25131D02*
D03*
X25387D02*
D03*
X25643D02*
D03*
X25899D02*
D03*
X26155D02*
D03*
X26411D02*
D03*
X26667D02*
D03*
X26922D02*
D03*
D95*
X22828Y31700D02*
D03*
X23772D02*
D03*
D96*
X21804D02*
D03*
X24796D02*
D03*
D97*
X23300Y32753D02*
D03*
X23556D02*
D03*
X23812D02*
D03*
X23044D02*
D03*
X22788D02*
D03*
D98*
X24520Y32704D02*
D03*
X22080D02*
D03*
M02*
