G04 Layer_Color=32768*
%FSLAX24Y24*%
%MOIN*%
G70*
G01*
G75*
%ADD59C,0.0050*%
%ADD99C,0.0039*%
%ADD101C,0.0020*%
D59*
X21631Y31660D02*
X25568D01*
Y34140D01*
X21631D02*
X25568D01*
X21631Y31660D02*
Y34140D01*
D99*
X33203Y44400D02*
X33597D01*
X33400Y44203D02*
Y44597D01*
X26528Y36933D02*
Y37367D01*
X27472Y36933D02*
Y37367D01*
X26528Y36933D02*
X27472D01*
X26528Y37367D02*
X27472D01*
X26813Y37150D02*
X27187D01*
X27000Y36963D02*
Y37337D01*
X23883Y42422D02*
X24317D01*
X23883Y41478D02*
X24317D01*
X23883D02*
Y42422D01*
X24317Y41478D02*
Y42422D01*
X24100Y41763D02*
Y42137D01*
X23913Y41950D02*
X24287D01*
X25378Y36933D02*
Y37367D01*
X26322Y36933D02*
Y37367D01*
X25378Y36933D02*
X26322D01*
X25378Y37367D02*
X26322D01*
X25663Y37150D02*
X26037D01*
X25850Y36963D02*
Y37337D01*
X36583Y39472D02*
X37017D01*
X36583Y38528D02*
X37017D01*
X36583D02*
Y39472D01*
X37017Y38528D02*
Y39472D01*
X36800Y38813D02*
Y39187D01*
X36613Y39000D02*
X36987D01*
X35728Y43383D02*
Y43817D01*
X36672Y43383D02*
Y43817D01*
X35728Y43383D02*
X36672D01*
X35728Y43817D02*
X36672D01*
X36013Y43600D02*
X36387D01*
X36200Y43413D02*
Y43787D01*
X26172Y32883D02*
Y33317D01*
X25228Y32883D02*
Y33317D01*
X26172D01*
X25228Y32883D02*
X26172D01*
X25513Y33100D02*
X25887D01*
X25700Y32913D02*
Y33287D01*
X33800Y38603D02*
Y38997D01*
X33603Y38800D02*
X33997D01*
X34383Y39472D02*
X34817D01*
X34383Y38528D02*
X34817D01*
X34383D02*
Y39472D01*
X34817Y38528D02*
Y39472D01*
X34600Y38813D02*
Y39187D01*
X34413Y39000D02*
X34787D01*
X25783Y33528D02*
X26217D01*
X25783Y34472D02*
X26217D01*
Y33528D02*
Y34472D01*
X25783Y33528D02*
Y34472D01*
X26000Y33813D02*
Y34187D01*
X25813Y34000D02*
X26187D01*
X27228Y34433D02*
Y34867D01*
X28172Y34433D02*
Y34867D01*
X27228Y34433D02*
X28172D01*
X27228Y34867D02*
X28172D01*
X27513Y34650D02*
X27887D01*
X27700Y34463D02*
Y34837D01*
X27228Y35083D02*
Y35517D01*
X28172Y35083D02*
Y35517D01*
X27228Y35083D02*
X28172D01*
X27228Y35517D02*
X28172D01*
X27513Y35300D02*
X27887D01*
X27700Y35113D02*
Y35487D01*
X27228Y35733D02*
Y36167D01*
X28172Y35733D02*
Y36167D01*
X27228Y35733D02*
X28172D01*
X27228Y36167D02*
X28172D01*
X27513Y35950D02*
X27887D01*
X27700Y35763D02*
Y36137D01*
X34072Y43383D02*
Y43817D01*
X33128Y43383D02*
Y43817D01*
X34072D01*
X33128Y43383D02*
X34072D01*
X33413Y43600D02*
X33787D01*
X33600Y43413D02*
Y43787D01*
X20183Y34628D02*
X20617D01*
X20183Y35572D02*
X20617D01*
X20183Y34628D02*
Y35572D01*
X20617Y34628D02*
Y35572D01*
X20400Y34913D02*
Y35287D01*
X20213Y35100D02*
X20587D01*
X16398Y39750D02*
X16753D01*
X16576Y39573D02*
Y39927D01*
X22783Y37328D02*
X23217D01*
X22783Y38272D02*
X23217D01*
X22783Y37328D02*
Y38272D01*
X23217Y37328D02*
Y38272D01*
X23000Y37613D02*
Y37987D01*
X22813Y37800D02*
X23187D01*
X17148Y39750D02*
X17503D01*
X17326Y39573D02*
Y39927D01*
X18779Y45500D02*
X19172D01*
X18976Y45303D02*
Y45697D01*
X27703Y45500D02*
X28097D01*
X27900Y45303D02*
Y45697D01*
X31903Y38100D02*
X32297D01*
X32100Y37903D02*
Y38297D01*
X19200Y33003D02*
Y33397D01*
X19003Y33200D02*
X19397D01*
X22844Y44800D02*
X23356D01*
X22844Y46000D02*
X23356D01*
X22844Y44800D02*
Y46000D01*
X23356Y44800D02*
Y46000D01*
X23100Y45223D02*
Y45577D01*
X22923Y45400D02*
X23277D01*
X23544Y44800D02*
X24056D01*
X23544Y46000D02*
X24056D01*
X23544Y44800D02*
Y46000D01*
X24056Y44800D02*
Y46000D01*
X23800Y45223D02*
Y45577D01*
X23623Y45400D02*
X23977D01*
X24183Y44928D02*
X24617D01*
X24183Y45872D02*
X24617D01*
X24183Y44928D02*
Y45872D01*
X24617Y44928D02*
Y45872D01*
X24400Y45213D02*
Y45587D01*
X24213Y45400D02*
X24587D01*
X16100Y36523D02*
Y36877D01*
X15923Y36700D02*
X16277D01*
X25372Y37383D02*
Y37817D01*
X24428Y37383D02*
Y37817D01*
Y37383D02*
X25372D01*
X24428Y37817D02*
X25372D01*
X24713Y37600D02*
X25087D01*
X24900Y37413D02*
Y37787D01*
X25372Y38083D02*
Y38517D01*
X24428Y38083D02*
Y38517D01*
Y38083D02*
X25372D01*
X24428Y38517D02*
X25372D01*
X24713Y38300D02*
X25087D01*
X24900Y38113D02*
Y38487D01*
X31583Y40172D02*
X32017D01*
X31583Y39228D02*
X32017D01*
Y40172D01*
X31583Y39228D02*
Y40172D01*
X31800Y39513D02*
Y39887D01*
X31613Y39700D02*
X31987D01*
X32283Y40172D02*
X32717D01*
X32283Y39228D02*
X32717D01*
Y40172D01*
X32283Y39228D02*
Y40172D01*
X32500Y39513D02*
Y39887D01*
X32313Y39700D02*
X32687D01*
X16883Y32572D02*
X17317D01*
X16883Y31628D02*
X17317D01*
Y32572D01*
X16883Y31628D02*
Y32572D01*
X17100Y31913D02*
Y32287D01*
X16913Y32100D02*
X17287D01*
X18800Y37323D02*
Y37677D01*
X18623Y37500D02*
X18977D01*
X18800Y36523D02*
Y36877D01*
X18623Y36700D02*
X18977D01*
X33000Y33903D02*
Y34297D01*
X32803Y34100D02*
X33197D01*
X23903Y36000D02*
X24297D01*
X24100Y35803D02*
Y36197D01*
X16100Y37323D02*
Y37677D01*
X15923Y37500D02*
X16277D01*
X16333Y41972D02*
X16767D01*
X16333Y41028D02*
X16767D01*
Y41972D01*
X16333Y41028D02*
Y41972D01*
X16550Y41313D02*
Y41687D01*
X16363Y41500D02*
X16737D01*
X17083Y41972D02*
X17517D01*
X17083Y41028D02*
X17517D01*
Y41972D01*
X17083Y41028D02*
Y41972D01*
X17300Y41313D02*
Y41687D01*
X17113Y41500D02*
X17487D01*
X26008Y41972D02*
X26441D01*
X26008Y41028D02*
X26441D01*
Y41972D01*
X26008Y41028D02*
Y41972D01*
X26224Y41313D02*
Y41687D01*
X26037Y41500D02*
X26411D01*
X19328Y38883D02*
Y39317D01*
X20272Y38883D02*
Y39317D01*
X19328D02*
X20272D01*
X19328Y38883D02*
X20272D01*
X19613Y39100D02*
X19987D01*
X19800Y38913D02*
Y39287D01*
X28252Y38883D02*
Y39317D01*
X29197Y38883D02*
Y39317D01*
X28252D02*
X29197D01*
X28252Y38883D02*
X29197D01*
X28537Y39100D02*
X28911D01*
X28724Y38913D02*
Y39287D01*
X19172Y38883D02*
Y39317D01*
X18228Y38883D02*
Y39317D01*
Y38883D02*
X19172D01*
X18228Y39317D02*
X19172D01*
X18513Y39100D02*
X18887D01*
X18700Y38913D02*
Y39287D01*
X28097Y38883D02*
Y39317D01*
X27152Y38883D02*
Y39317D01*
Y38883D02*
X28097D01*
X27152Y39317D02*
X28097D01*
X27437Y39100D02*
X27811D01*
X27624Y38913D02*
Y39287D01*
X18976Y40803D02*
Y41197D01*
X18779Y41000D02*
X19172D01*
X27900Y40803D02*
Y41197D01*
X27703Y41000D02*
X28097D01*
X32372Y31483D02*
Y31917D01*
X31428Y31483D02*
Y31917D01*
Y31483D02*
X32372D01*
X31428Y31917D02*
X32372D01*
X31713Y31700D02*
X32087D01*
X31900Y31513D02*
Y31887D01*
X36000Y31444D02*
Y31956D01*
X34800Y31444D02*
Y31956D01*
Y31444D02*
X36000D01*
X34800Y31956D02*
X36000D01*
X35223Y31700D02*
X35577D01*
X35400Y31523D02*
Y31877D01*
X34572Y31483D02*
Y31917D01*
X33628Y31483D02*
Y31917D01*
Y31483D02*
X34572D01*
X33628Y31917D02*
X34572D01*
X33913Y31700D02*
X34287D01*
X34100Y31513D02*
Y31887D01*
X35900Y37844D02*
Y38356D01*
X37100Y37844D02*
Y38356D01*
X35900D02*
X37100D01*
X35900Y37844D02*
X37100D01*
X36323Y38100D02*
X36677D01*
X36500Y37923D02*
Y38277D01*
X36972Y38483D02*
Y38917D01*
X36028Y38483D02*
Y38917D01*
Y38483D02*
X36972D01*
X36028Y38917D02*
X36972D01*
X36313Y38700D02*
X36687D01*
X36500Y38513D02*
Y38887D01*
X25258Y41972D02*
X25691D01*
X25258Y41028D02*
X25691D01*
Y41972D01*
X25258Y41028D02*
Y41972D01*
X25474Y41313D02*
Y41687D01*
X25287Y41500D02*
X25661D01*
X25323Y39750D02*
X25677D01*
X25500Y39573D02*
Y39927D01*
X26073Y39750D02*
X26427D01*
X26250Y39573D02*
Y39927D01*
X25062Y39329D02*
X25456D01*
X25259Y39132D02*
Y39526D01*
X23103Y31700D02*
X23497D01*
X23300Y31503D02*
Y31897D01*
X24683Y41478D02*
X25117D01*
X24683Y42422D02*
X25117D01*
Y41478D02*
Y42422D01*
X24683Y41478D02*
Y42422D01*
X24900Y41763D02*
Y42137D01*
X24713Y41950D02*
X25087D01*
X32428Y36583D02*
Y37017D01*
X33372Y36583D02*
Y37017D01*
X32428D02*
X33372D01*
X32428Y36583D02*
X33372D01*
X32713Y36800D02*
X33087D01*
X32900Y36613D02*
Y36987D01*
X33528Y36583D02*
Y37017D01*
X34472Y36583D02*
Y37017D01*
X33528D02*
X34472D01*
X33528Y36583D02*
X34472D01*
X33813Y36800D02*
X34187D01*
X34000Y36613D02*
Y36987D01*
X22283Y44928D02*
X22717D01*
X22283Y45872D02*
X22717D01*
X22283Y44928D02*
Y45872D01*
X22717Y44928D02*
Y45872D01*
X22500Y45213D02*
Y45587D01*
X22313Y45400D02*
X22687D01*
X33603Y41700D02*
X33997D01*
X33800Y41503D02*
Y41897D01*
X36000Y41503D02*
Y41897D01*
X35803Y41700D02*
X36197D01*
D101*
X34365Y43947D02*
Y44853D01*
X32435Y43947D02*
Y44853D01*
X34365D01*
X32435Y43947D02*
X34365D01*
X33347Y39765D02*
X34253D01*
X33347Y37835D02*
X34253D01*
X33347D02*
Y39765D01*
X34253Y37835D02*
Y39765D01*
X16969Y39100D02*
Y40400D01*
X16182Y39100D02*
Y40400D01*
X16969D01*
X16182Y39100D02*
X16969D01*
X16932Y39100D02*
Y40400D01*
X17719Y39100D02*
Y40400D01*
X16932Y39100D02*
X17719D01*
X16932Y40400D02*
X17719D01*
X20509Y40547D02*
X20942D01*
X20509Y41453D02*
X20942D01*
X20509Y40547D02*
Y41453D01*
X20942Y40547D02*
Y41453D01*
X20726Y40813D02*
Y41187D01*
X20539Y41000D02*
X20913D01*
X16336Y46669D02*
X21615D01*
Y44320D02*
Y46669D01*
X16336Y44320D02*
X21615D01*
X16336Y44320D02*
Y46669D01*
X25261Y46669D02*
X30539D01*
Y44320D02*
Y46669D01*
X25261Y44320D02*
X30539D01*
X25261Y44320D02*
Y46669D01*
X29088Y37135D02*
X35112D01*
Y39065D01*
X29088Y37135D02*
Y39065D01*
X35112D01*
X17566Y34381D02*
X20834D01*
X17566Y32019D02*
X20834D01*
X17566D02*
Y34381D01*
X20834Y32019D02*
Y34381D01*
X15450Y36306D02*
X16750D01*
X15450Y37094D02*
X16750D01*
Y36306D02*
Y37094D01*
X15450Y36306D02*
Y37094D01*
X18150Y37894D02*
X19450D01*
X18150Y37106D02*
X19450D01*
X18150D02*
Y37894D01*
X19450Y37106D02*
Y37894D01*
X18150Y36306D02*
X19450D01*
X18150Y37094D02*
X19450D01*
Y36306D02*
Y37094D01*
X18150Y36306D02*
Y37094D01*
X30933Y36167D02*
X35067D01*
X30933Y32033D02*
X35067D01*
Y36167D01*
X30933Y32033D02*
Y36167D01*
X22643Y34898D02*
Y37102D01*
X25557Y34898D02*
Y37102D01*
X22643D02*
X25557D01*
X22643Y34898D02*
X25557D01*
X15450Y37894D02*
X16750D01*
X15450Y37106D02*
X16750D01*
X15450D02*
Y37894D01*
X16750Y37106D02*
Y37894D01*
X17932Y42339D02*
X20019D01*
X17932Y39661D02*
X20019D01*
Y42339D01*
X17932Y39661D02*
Y42339D01*
X26857Y42339D02*
X28943D01*
X26857Y39661D02*
X28943D01*
Y42339D01*
X26857Y39661D02*
Y42339D01*
X25894Y39100D02*
Y40400D01*
X25106Y39100D02*
Y40400D01*
X25894D01*
X25106Y39100D02*
X25894D01*
X25856Y39100D02*
Y40400D01*
X26644Y39100D02*
Y40400D01*
X25856Y39100D02*
X26644D01*
X25856Y40400D02*
X26644D01*
X23153Y37597D02*
Y41061D01*
X27365Y37597D02*
Y41061D01*
X23153D02*
X27365D01*
X23153Y37597D02*
X27365D01*
X21410Y33058D02*
X25190D01*
Y30609D02*
Y33058D01*
X21410Y30609D02*
Y33058D01*
Y30609D02*
X25190D01*
X29433Y40547D02*
X29867D01*
X29433Y41453D02*
X29867D01*
X29433Y40547D02*
Y41453D01*
X29867Y40547D02*
Y41453D01*
X29650Y40813D02*
Y41187D01*
X29463Y41000D02*
X29837D01*
X32898Y39594D02*
Y43806D01*
X34946Y39594D02*
Y43806D01*
X32898D02*
X34946D01*
X32898Y39594D02*
X34946D01*
X35232Y39554D02*
X37161D01*
X35232Y43846D02*
X37161D01*
X35232Y39554D02*
Y43846D01*
X37161Y39554D02*
Y43846D01*
M02*
