G04 Layer_Color=16711935*
%FSLAX24Y24*%
%MOIN*%
G70*
G01*
G75*
%ADD59C,0.0050*%
%ADD99C,0.0039*%
%ADD101C,0.0020*%
%ADD102R,0.0180X0.0709*%
%ADD103R,0.0709X0.0180*%
D59*
X22380Y34120D02*
X24820D01*
X22380Y31680D02*
Y34120D01*
Y31680D02*
X24820D01*
Y34120D01*
D99*
X19830Y32570D02*
G03*
X19830Y32570I-197J0D01*
G01*
X34220Y35124D02*
G03*
X34220Y35124I-197J0D01*
G01*
X23864Y36630D02*
G03*
X23864Y36630I-197J0D01*
G01*
X19802Y41433D02*
G03*
X19802Y41433I-197J0D01*
G01*
X28727Y41433D02*
G03*
X28727Y41433I-197J0D01*
G01*
X27169Y38581D02*
G03*
X27169Y38581I-197J0D01*
G01*
X34069Y44046D02*
Y44754D01*
X32731Y44046D02*
Y44754D01*
X34069D01*
X32731Y44046D02*
X34069D01*
X26656Y36963D02*
Y37337D01*
X27344Y36963D02*
Y37337D01*
X26656Y36963D02*
X27344D01*
X26656Y37337D02*
X27344D01*
X23913Y42295D02*
X24287D01*
X23913Y41606D02*
X24287D01*
X23913D02*
Y42295D01*
X24287Y41606D02*
Y42295D01*
X25505Y36963D02*
Y37337D01*
X26194Y36963D02*
Y37337D01*
X25505Y36963D02*
X26194D01*
X25505Y37337D02*
X26194D01*
X36613Y39344D02*
X36987D01*
X36613Y38656D02*
X36987D01*
X36613D02*
Y39344D01*
X36987Y38656D02*
Y39344D01*
X35856Y43413D02*
Y43787D01*
X36544Y43413D02*
Y43787D01*
X35856Y43413D02*
X36544D01*
X35856Y43787D02*
X36544D01*
X26044Y32913D02*
Y33287D01*
X25356Y32913D02*
Y33287D01*
X26044D01*
X25356Y32913D02*
X26044D01*
X33446Y39469D02*
X34154D01*
X33446Y38131D02*
X34154D01*
X33446D02*
Y39469D01*
X34154Y38131D02*
Y39469D01*
X34413Y39344D02*
X34787D01*
X34413Y38656D02*
X34787D01*
X34413D02*
Y39344D01*
X34787Y38656D02*
Y39344D01*
X25813Y33665D02*
X26187D01*
X25813Y34335D02*
X26187D01*
Y33665D02*
Y34335D01*
X25813Y33665D02*
Y34335D01*
X27365Y34463D02*
Y34837D01*
X28035Y34463D02*
Y34837D01*
X27365Y34463D02*
X28035D01*
X27365Y34837D02*
X28035D01*
X27365Y35113D02*
Y35487D01*
X28035Y35113D02*
Y35487D01*
X27365Y35113D02*
X28035D01*
X27365Y35487D02*
X28035D01*
X27365Y35763D02*
Y36137D01*
X28035Y35763D02*
Y36137D01*
X27365Y35763D02*
X28035D01*
X27365Y36137D02*
X28035D01*
X33944Y43413D02*
Y43787D01*
X33256Y43413D02*
Y43787D01*
X33944D01*
X33256Y43413D02*
X33944D01*
X20213Y34756D02*
X20587D01*
X20213Y35444D02*
X20587D01*
X20213Y34756D02*
Y35444D01*
X20587Y34756D02*
Y35444D01*
X16753Y39415D02*
Y40085D01*
X16398Y39415D02*
Y40085D01*
X16753D01*
X16398Y39415D02*
X16753D01*
X22813Y37465D02*
X23187D01*
X22813Y38135D02*
X23187D01*
X22813Y37465D02*
Y38135D01*
X23187Y37465D02*
Y38135D01*
X17148Y39415D02*
Y40085D01*
X17503Y39415D02*
Y40085D01*
X17148Y39415D02*
X17503D01*
X17148Y40085D02*
X17503D01*
X20539Y40665D02*
X20913D01*
X20539Y41335D02*
X20913D01*
X20539Y40665D02*
Y41335D01*
X20913Y40665D02*
Y41335D01*
X16376Y44359D02*
X21576D01*
X16376Y46629D02*
X21576D01*
X16376Y44359D02*
Y46629D01*
X21576Y44359D02*
Y46629D01*
X25300Y44359D02*
X30500D01*
X25300Y46629D02*
X30500D01*
X25300Y44359D02*
Y46629D01*
X30500Y44359D02*
Y46629D01*
X29856Y39025D02*
X34344D01*
Y37175D02*
Y39025D01*
X29856Y37175D02*
Y39025D01*
Y37175D02*
X34344D01*
X18413Y34184D02*
X19987D01*
X18413Y32216D02*
X19987D01*
X18413D02*
Y34184D01*
X19987Y32216D02*
Y34184D01*
X22923Y45065D02*
X23277D01*
X22923Y45735D02*
X23277D01*
X22923Y45065D02*
Y45735D01*
X23277Y45065D02*
Y45735D01*
X23623Y45065D02*
X23977D01*
X23623Y45735D02*
X23977D01*
X23623Y45065D02*
Y45735D01*
X23977Y45065D02*
Y45735D01*
X24213Y45065D02*
X24587D01*
X24213Y45735D02*
X24587D01*
X24213Y45065D02*
Y45735D01*
X24587Y45065D02*
Y45735D01*
X15765Y36523D02*
X16435D01*
X15765Y36877D02*
X16435D01*
Y36523D02*
Y36877D01*
X15765Y36523D02*
Y36877D01*
X25244Y37413D02*
Y37787D01*
X24556Y37413D02*
Y37787D01*
Y37413D02*
X25244D01*
X24556Y37787D02*
X25244D01*
Y38113D02*
Y38487D01*
X24556Y38113D02*
Y38487D01*
Y38113D02*
X25244D01*
X24556Y38487D02*
X25244D01*
X31613Y40044D02*
X31987D01*
X31613Y39356D02*
X31987D01*
Y40044D01*
X31613Y39356D02*
Y40044D01*
X32313Y40044D02*
X32687D01*
X32313Y39356D02*
X32687D01*
Y40044D01*
X32313Y39356D02*
Y40044D01*
X16913Y32444D02*
X17287D01*
X16913Y31756D02*
X17287D01*
Y32444D01*
X16913Y31756D02*
Y32444D01*
X18465Y37677D02*
X19135D01*
X18465Y37323D02*
X19135D01*
X18465D02*
Y37677D01*
X19135Y37323D02*
Y37677D01*
X18465Y36523D02*
X19135D01*
X18465Y36877D02*
X19135D01*
Y36523D02*
Y36877D01*
X18465Y36523D02*
Y36877D01*
X31622Y35478D02*
X34378D01*
X31622Y32722D02*
X34378D01*
Y35478D01*
X31622Y32722D02*
Y35478D01*
X23313Y35016D02*
Y36984D01*
X24887Y35016D02*
Y36984D01*
X23313D02*
X24887D01*
X23313Y35016D02*
X24887D01*
X15765Y37677D02*
X16435D01*
X15765Y37323D02*
X16435D01*
X15765D02*
Y37677D01*
X16435Y37323D02*
Y37677D01*
X16363Y41844D02*
X16737D01*
X16363Y41156D02*
X16737D01*
Y41844D01*
X16363Y41156D02*
Y41844D01*
X17113D02*
X17487D01*
X17113Y41156D02*
X17487D01*
Y41844D01*
X17113Y41156D02*
Y41844D01*
X26037Y41844D02*
X26411D01*
X26037Y41156D02*
X26411D01*
Y41844D01*
X26037Y41156D02*
Y41844D01*
X19456Y38913D02*
Y39287D01*
X20144Y38913D02*
Y39287D01*
X19456D02*
X20144D01*
X19456Y38913D02*
X20144D01*
X28380Y38913D02*
Y39287D01*
X29069Y38913D02*
Y39287D01*
X28380D02*
X29069D01*
X28380Y38913D02*
X29069D01*
X19044Y38913D02*
Y39287D01*
X18356Y38913D02*
Y39287D01*
Y38913D02*
X19044D01*
X18356Y39287D02*
X19044D01*
X27969Y38913D02*
Y39287D01*
X27280Y38913D02*
Y39287D01*
Y38913D02*
X27969D01*
X27280Y39287D02*
X27969D01*
X17991Y41787D02*
X19960D01*
X17991Y40213D02*
X19960D01*
Y41787D01*
X17991Y40213D02*
Y41787D01*
X26916Y41787D02*
X28884D01*
X26916Y40213D02*
X28884D01*
Y41787D01*
X26916Y40213D02*
Y41787D01*
X32244Y31513D02*
Y31887D01*
X31556Y31513D02*
Y31887D01*
Y31513D02*
X32244D01*
X31556Y31887D02*
X32244D01*
X35735Y31523D02*
Y31877D01*
X35065Y31523D02*
Y31877D01*
Y31523D02*
X35735D01*
X35065Y31877D02*
X35735D01*
X34435Y31513D02*
Y31887D01*
X33765Y31513D02*
Y31887D01*
Y31513D02*
X34435D01*
X33765Y31887D02*
X34435D01*
X36165Y37923D02*
Y38277D01*
X36835Y37923D02*
Y38277D01*
X36165D02*
X36835D01*
X36165Y37923D02*
X36835D01*
Y38513D02*
Y38887D01*
X36165Y38513D02*
Y38887D01*
Y38513D02*
X36835D01*
X36165Y38887D02*
X36835D01*
X25287Y41844D02*
X25661D01*
X25287Y41156D02*
X25661D01*
Y41844D01*
X25287Y41156D02*
Y41844D01*
X25677Y39415D02*
Y40085D01*
X25323Y39415D02*
Y40085D01*
X25677D01*
X25323Y39415D02*
X25677D01*
X26073Y39415D02*
Y40085D01*
X26427Y39415D02*
Y40085D01*
X26073Y39415D02*
X26427D01*
X26073Y40085D02*
X26427D01*
X23192Y38227D02*
Y40431D01*
X27326Y38227D02*
Y40431D01*
X23192D02*
X27326D01*
X23192Y38227D02*
X27326D01*
X21715Y32920D02*
X24885D01*
Y30649D02*
Y32920D01*
X21715Y30649D02*
Y32920D01*
Y30649D02*
X24885D01*
X24713Y41606D02*
X25087D01*
X24713Y42294D02*
X25087D01*
Y41606D02*
Y42294D01*
X24713Y41606D02*
Y42294D01*
X32556Y36613D02*
Y36987D01*
X33244Y36613D02*
Y36987D01*
X32556D02*
X33244D01*
X32556Y36613D02*
X33244D01*
X33656D02*
Y36987D01*
X34344Y36613D02*
Y36987D01*
X33656D02*
X34344D01*
X33656Y36613D02*
X34344D01*
X29463Y40665D02*
X29837D01*
X29463Y41335D02*
X29837D01*
X29463Y40665D02*
Y41335D01*
X29837Y40665D02*
Y41335D01*
X22313Y45065D02*
X22687D01*
X22313Y45735D02*
X22687D01*
X22313Y45065D02*
Y45735D01*
X22687Y45065D02*
Y45735D01*
X32997Y39692D02*
Y43708D01*
X34847Y39692D02*
Y43708D01*
X32997D02*
X34847D01*
X32997Y39692D02*
X34847D01*
X34316D02*
Y43708D01*
X37122Y39594D02*
Y43806D01*
X35272Y39594D02*
Y43806D01*
X37122D01*
X35272Y39594D02*
X37122D01*
X36610D02*
Y43806D01*
D101*
X33399Y37372D02*
G03*
X33399Y38828I0J728D01*
G01*
X30801D02*
G03*
X30801Y37372I0J-728D01*
G01*
X30801Y37372D02*
X33399D01*
X30801Y38828D02*
X33399D01*
D102*
X33979Y44400D02*
D03*
D103*
X33800Y39379D02*
D03*
M02*
