G04 Layer_Color=128*
%FSLAX24Y24*%
%MOIN*%
G70*
G01*
G75*
%ADD10R,0.0354X0.0315*%
%ADD12R,0.0354X0.0276*%
%ADD22R,0.0315X0.0354*%
%ADD28R,0.0276X0.0354*%
%ADD49R,0.0768X0.0512*%
%ADD50R,0.0512X0.0768*%
%ADD51O,0.0138X0.0709*%
%ADD52R,0.0748X0.0748*%
%ADD53R,0.0709X0.0748*%
%ADD54R,0.0157X0.0532*%
%ADD55R,0.0827X0.0630*%
D10*
X24100Y42226D02*
D03*
Y41674D02*
D03*
X36800Y39276D02*
D03*
Y38724D02*
D03*
X34600Y39276D02*
D03*
Y38724D02*
D03*
X24900Y41674D02*
D03*
Y42226D02*
D03*
D12*
X26000Y33705D02*
D03*
Y34295D02*
D03*
D22*
X26724Y37150D02*
D03*
X27276D02*
D03*
X25574Y37150D02*
D03*
X26126D02*
D03*
X35924Y43600D02*
D03*
X36476D02*
D03*
X25976Y33100D02*
D03*
X25424D02*
D03*
X33876Y43600D02*
D03*
X33324D02*
D03*
D28*
X27405Y34650D02*
D03*
X27995D02*
D03*
X27405Y35300D02*
D03*
X27995D02*
D03*
X27405Y35950D02*
D03*
X27995D02*
D03*
D49*
X33882Y44400D02*
D03*
X32918D02*
D03*
D50*
X33800Y39282D02*
D03*
Y38318D02*
D03*
D51*
X23596Y40668D02*
D03*
X23852D02*
D03*
X24107D02*
D03*
X24363D02*
D03*
X24619D02*
D03*
X24875D02*
D03*
X25131D02*
D03*
X25387D02*
D03*
X25643D02*
D03*
X25899D02*
D03*
X26155D02*
D03*
X26411D02*
D03*
X26667D02*
D03*
X26922D02*
D03*
X23596Y37991D02*
D03*
X23852D02*
D03*
X24107D02*
D03*
X24363D02*
D03*
X24619D02*
D03*
X24875D02*
D03*
X25131D02*
D03*
X25387D02*
D03*
X25643D02*
D03*
X25899D02*
D03*
X26155D02*
D03*
X26411D02*
D03*
X26667D02*
D03*
X26922D02*
D03*
D52*
X22828Y31700D02*
D03*
X23772D02*
D03*
D53*
X21804D02*
D03*
X24796D02*
D03*
D54*
X23300Y32753D02*
D03*
X23556D02*
D03*
X23812D02*
D03*
X23044D02*
D03*
X22788D02*
D03*
D55*
X24520Y32704D02*
D03*
X22080D02*
D03*
M02*
