G04 Layer_Color=65535*
%FSLAX24Y24*%
%MOIN*%
G70*
G01*
G75*
%ADD29C,0.0100*%
%ADD57C,0.0098*%
%ADD58C,0.0236*%
%ADD59C,0.0050*%
%ADD60C,0.0157*%
%ADD61C,0.0079*%
%ADD62C,0.0080*%
D29*
X15936Y38806D02*
G03*
X15936Y38806I-39J0D01*
G01*
X23409Y42397D02*
G03*
X23409Y42397I-39J0D01*
G01*
X32333Y42397D02*
G03*
X32333Y42397I-39J0D01*
G01*
X14746Y34703D02*
G03*
X14746Y34703I-39J0D01*
G01*
X17446D02*
G03*
X17446Y34703I-39J0D01*
G01*
X24861Y38806D02*
G03*
X24861Y38806I-39J0D01*
G01*
X15739Y40460D02*
X15936D01*
Y39554D02*
Y40460D01*
X14676D02*
X14873D01*
X14676Y39554D02*
Y40460D01*
X15267Y39200D02*
X15346D01*
X21716Y42239D02*
Y42436D01*
X22621D01*
X21716Y41176D02*
Y41373D01*
Y41176D02*
X22621D01*
X22976Y41767D02*
Y41846D01*
X30640Y42239D02*
Y42436D01*
X31546D01*
X30640Y41176D02*
Y41373D01*
Y41176D02*
X31546D01*
X31900Y41767D02*
Y41846D01*
X16360Y34664D02*
Y34861D01*
X15454Y34664D02*
X16360D01*
Y35727D02*
Y35924D01*
X15454D02*
X16360D01*
X15100Y35254D02*
Y35333D01*
X19060Y34664D02*
Y34861D01*
X18154Y34664D02*
X19060D01*
Y35727D02*
Y35924D01*
X18154D02*
X19060D01*
X17800Y35254D02*
Y35333D01*
X24664Y40460D02*
X24861D01*
Y39554D02*
Y40460D01*
X23601D02*
X23798D01*
X23601Y39554D02*
Y40460D01*
X24191Y39200D02*
X24270D01*
X25885Y39100D02*
X25550D01*
X25885D02*
Y38957D01*
X25869Y38909D01*
X25853Y38893D01*
X25821Y38877D01*
X25789D01*
X25757Y38893D01*
X25741Y38909D01*
X25725Y38957D01*
Y39100D01*
Y38988D02*
X25550Y38877D01*
X25805Y38786D02*
X25821D01*
X25853Y38770D01*
X25869Y38754D01*
X25885Y38722D01*
Y38659D01*
X25869Y38627D01*
X25853Y38611D01*
X25821Y38595D01*
X25789D01*
X25757Y38611D01*
X25709Y38643D01*
X25550Y38802D01*
Y38579D01*
X25885Y38424D02*
X25869Y38472D01*
X25837Y38488D01*
X25805D01*
X25773Y38472D01*
X25757Y38440D01*
X25741Y38377D01*
X25725Y38329D01*
X25693Y38297D01*
X25662Y38281D01*
X25614D01*
X25582Y38297D01*
X25566Y38313D01*
X25550Y38361D01*
Y38424D01*
X25566Y38472D01*
X25582Y38488D01*
X25614Y38504D01*
X25662D01*
X25693Y38488D01*
X25725Y38456D01*
X25741Y38409D01*
X25757Y38345D01*
X25773Y38313D01*
X25805Y38297D01*
X25837D01*
X25869Y38313D01*
X25885Y38361D01*
Y38424D01*
X25438Y38206D02*
Y37951D01*
X25550Y37653D02*
X25885Y37781D01*
X25550Y37908D01*
X25662Y37860D02*
Y37701D01*
X25773Y37575D02*
X25550D01*
X25709D02*
X25757Y37527D01*
X25773Y37496D01*
Y37448D01*
X25757Y37416D01*
X25709Y37400D01*
X25550D01*
X25709D02*
X25757Y37352D01*
X25773Y37320D01*
Y37273D01*
X25757Y37241D01*
X25709Y37225D01*
X25550D01*
X25773Y37120D02*
X25438D01*
X25725D02*
X25757Y37088D01*
X25773Y37056D01*
Y37008D01*
X25757Y36976D01*
X25725Y36944D01*
X25677Y36928D01*
X25646D01*
X25598Y36944D01*
X25566Y36976D01*
X25550Y37008D01*
Y37056D01*
X25566Y37088D01*
X25598Y37120D01*
X25821Y36857D02*
X25837Y36825D01*
X25885Y36777D01*
X25550D01*
X34350Y32385D02*
Y32050D01*
Y32385D02*
X34493D01*
X34541Y32369D01*
X34557Y32353D01*
X34573Y32321D01*
Y32289D01*
X34557Y32257D01*
X34541Y32241D01*
X34493Y32225D01*
X34350D01*
X34462D02*
X34573Y32050D01*
X34664Y32305D02*
Y32321D01*
X34680Y32353D01*
X34696Y32369D01*
X34728Y32385D01*
X34791D01*
X34823Y32369D01*
X34839Y32353D01*
X34855Y32321D01*
Y32289D01*
X34839Y32257D01*
X34807Y32209D01*
X34648Y32050D01*
X34871D01*
X35169Y32385D02*
X35010Y32050D01*
X34946Y32385D02*
X35169D01*
X35050Y38885D02*
Y38550D01*
Y38885D02*
X35193D01*
X35241Y38869D01*
X35257Y38853D01*
X35273Y38821D01*
Y38789D01*
X35257Y38757D01*
X35241Y38741D01*
X35193Y38725D01*
X35050D01*
X35162D02*
X35273Y38550D01*
X35364Y38805D02*
Y38821D01*
X35380Y38853D01*
X35396Y38869D01*
X35428Y38885D01*
X35491D01*
X35523Y38869D01*
X35539Y38853D01*
X35555Y38821D01*
Y38789D01*
X35539Y38757D01*
X35507Y38709D01*
X35348Y38550D01*
X35571D01*
X35837Y38837D02*
X35821Y38869D01*
X35773Y38885D01*
X35741D01*
X35694Y38869D01*
X35662Y38821D01*
X35646Y38741D01*
Y38662D01*
X35662Y38598D01*
X35694Y38566D01*
X35741Y38550D01*
X35757D01*
X35805Y38566D01*
X35837Y38598D01*
X35853Y38646D01*
Y38662D01*
X35837Y38709D01*
X35805Y38741D01*
X35757Y38757D01*
X35741D01*
X35694Y38741D01*
X35662Y38709D01*
X35646Y38662D01*
X22300Y38735D02*
Y38400D01*
Y38735D02*
X22443D01*
X22491Y38719D01*
X22507Y38703D01*
X22523Y38671D01*
Y38639D01*
X22507Y38607D01*
X22491Y38591D01*
X22443Y38575D01*
X22300D01*
X22412D02*
X22523Y38400D01*
X22614Y38655D02*
Y38671D01*
X22630Y38703D01*
X22646Y38719D01*
X22678Y38735D01*
X22741D01*
X22773Y38719D01*
X22789Y38703D01*
X22805Y38671D01*
Y38639D01*
X22789Y38607D01*
X22757Y38559D01*
X22598Y38400D01*
X22821D01*
X23087Y38735D02*
X22928D01*
X22912Y38591D01*
X22928Y38607D01*
X22976Y38623D01*
X23023D01*
X23071Y38607D01*
X23103Y38575D01*
X23119Y38527D01*
Y38496D01*
X23103Y38448D01*
X23071Y38416D01*
X23023Y38400D01*
X22976D01*
X22928Y38416D01*
X22912Y38432D01*
X22896Y38464D01*
X21100Y40135D02*
Y39800D01*
Y40135D02*
X21243D01*
X21291Y40119D01*
X21307Y40103D01*
X21323Y40071D01*
Y40039D01*
X21307Y40007D01*
X21291Y39991D01*
X21243Y39975D01*
X21100D01*
X21212D02*
X21323Y39800D01*
X21398Y40071D02*
X21430Y40087D01*
X21478Y40135D01*
Y39800D01*
X21675Y40135D02*
X21850D01*
X21755Y40007D01*
X21803D01*
X21834Y39991D01*
X21850Y39975D01*
X21866Y39927D01*
Y39896D01*
X21850Y39848D01*
X21819Y39816D01*
X21771Y39800D01*
X21723D01*
X21675Y39816D01*
X21659Y39832D01*
X21643Y39864D01*
X21941Y39688D02*
X22196D01*
X22494Y39800D02*
X22367Y40135D01*
X22239Y39800D01*
X22287Y39912D02*
X22446D01*
X22572Y40023D02*
Y39800D01*
Y39959D02*
X22620Y40007D01*
X22652Y40023D01*
X22700D01*
X22731Y40007D01*
X22747Y39959D01*
Y39800D01*
Y39959D02*
X22795Y40007D01*
X22827Y40023D01*
X22875D01*
X22907Y40007D01*
X22923Y39959D01*
Y39800D01*
X23028Y40023D02*
Y39688D01*
Y39975D02*
X23060Y40007D01*
X23092Y40023D01*
X23139D01*
X23171Y40007D01*
X23203Y39975D01*
X23219Y39927D01*
Y39896D01*
X23203Y39848D01*
X23171Y39816D01*
X23139Y39800D01*
X23092D01*
X23060Y39816D01*
X23028Y39848D01*
X23291Y40071D02*
X23323Y40087D01*
X23370Y40135D01*
Y39800D01*
X26685Y39100D02*
X26350D01*
X26685D02*
Y38957D01*
X26669Y38909D01*
X26653Y38893D01*
X26621Y38877D01*
X26589D01*
X26557Y38893D01*
X26541Y38909D01*
X26525Y38957D01*
Y39100D01*
Y38988D02*
X26350Y38877D01*
X26621Y38802D02*
X26637Y38770D01*
X26685Y38722D01*
X26350D01*
X26605Y38541D02*
X26621D01*
X26653Y38525D01*
X26669Y38509D01*
X26685Y38477D01*
Y38413D01*
X26669Y38381D01*
X26653Y38366D01*
X26621Y38350D01*
X26589D01*
X26557Y38366D01*
X26509Y38397D01*
X26350Y38557D01*
Y38334D01*
X26238Y38259D02*
Y38004D01*
X26350Y37706D02*
X26685Y37833D01*
X26350Y37961D01*
X26462Y37913D02*
Y37754D01*
X26573Y37628D02*
X26350D01*
X26509D02*
X26557Y37580D01*
X26573Y37548D01*
Y37500D01*
X26557Y37469D01*
X26509Y37453D01*
X26350D01*
X26509D02*
X26557Y37405D01*
X26573Y37373D01*
Y37325D01*
X26557Y37293D01*
X26509Y37277D01*
X26350D01*
X26573Y37172D02*
X26238D01*
X26525D02*
X26557Y37140D01*
X26573Y37108D01*
Y37061D01*
X26557Y37029D01*
X26525Y36997D01*
X26477Y36981D01*
X26446D01*
X26398Y36997D01*
X26366Y37029D01*
X26350Y37061D01*
Y37108D01*
X26366Y37140D01*
X26398Y37172D01*
X26621Y36909D02*
X26637Y36877D01*
X26685Y36830D01*
X26350D01*
X29300Y40385D02*
Y40050D01*
Y40385D02*
X29443D01*
X29491Y40369D01*
X29507Y40353D01*
X29523Y40321D01*
Y40289D01*
X29507Y40257D01*
X29491Y40241D01*
X29443Y40225D01*
X29300D01*
X29412D02*
X29523Y40050D01*
X29789Y40337D02*
X29773Y40369D01*
X29725Y40385D01*
X29694D01*
X29646Y40369D01*
X29614Y40321D01*
X29598Y40241D01*
Y40162D01*
X29614Y40098D01*
X29646Y40066D01*
X29694Y40050D01*
X29709D01*
X29757Y40066D01*
X29789Y40098D01*
X29805Y40146D01*
Y40162D01*
X29789Y40209D01*
X29757Y40241D01*
X29709Y40257D01*
X29694D01*
X29646Y40241D01*
X29614Y40209D01*
X29598Y40162D01*
X29878Y39938D02*
X30133D01*
X30431Y40050D02*
X30304Y40385D01*
X30176Y40050D01*
X30224Y40162D02*
X30383D01*
X30509Y40273D02*
Y40050D01*
Y40209D02*
X30557Y40257D01*
X30589Y40273D01*
X30637D01*
X30669Y40257D01*
X30685Y40209D01*
Y40050D01*
Y40209D02*
X30732Y40257D01*
X30764Y40273D01*
X30812D01*
X30844Y40257D01*
X30860Y40209D01*
Y40050D01*
X30965Y40273D02*
Y39938D01*
Y40225D02*
X30997Y40257D01*
X31029Y40273D01*
X31076D01*
X31108Y40257D01*
X31140Y40225D01*
X31156Y40177D01*
Y40146D01*
X31140Y40098D01*
X31108Y40066D01*
X31076Y40050D01*
X31029D01*
X30997Y40066D01*
X30965Y40098D01*
X31228Y40321D02*
X31260Y40337D01*
X31307Y40385D01*
Y40050D01*
X31715Y42650D02*
X32050D01*
X31715D02*
Y42793D01*
X31731Y42841D01*
X31747Y42857D01*
X31779Y42873D01*
X31811D01*
X31843Y42857D01*
X31859Y42841D01*
X31875Y42793D01*
Y42650D01*
Y42762D02*
X32050Y42873D01*
X31715Y43139D02*
Y42980D01*
X31859Y42964D01*
X31843Y42980D01*
X31827Y43028D01*
Y43075D01*
X31843Y43123D01*
X31875Y43155D01*
X31923Y43171D01*
X31954D01*
X32002Y43155D01*
X32034Y43123D01*
X32050Y43075D01*
Y43028D01*
X32034Y42980D01*
X32018Y42964D01*
X31986Y42948D01*
X32162Y43246D02*
Y43501D01*
X32050Y43799D02*
X31715Y43671D01*
X32050Y43544D01*
X31938Y43592D02*
Y43751D01*
X31827Y43877D02*
X32050D01*
X31891D02*
X31843Y43925D01*
X31827Y43956D01*
Y44004D01*
X31843Y44036D01*
X31891Y44052D01*
X32050D01*
X31891D02*
X31843Y44100D01*
X31827Y44132D01*
Y44180D01*
X31843Y44211D01*
X31891Y44227D01*
X32050D01*
X31827Y44332D02*
X32162D01*
X31875D02*
X31843Y44364D01*
X31827Y44396D01*
Y44444D01*
X31843Y44476D01*
X31875Y44508D01*
X31923Y44524D01*
X31954D01*
X32002Y44508D01*
X32034Y44476D01*
X32050Y44444D01*
Y44396D01*
X32034Y44364D01*
X32002Y44332D01*
X31779Y44595D02*
X31763Y44627D01*
X31715Y44675D01*
X32050D01*
X26220Y34299D02*
X26363D01*
X26411Y34315D01*
X26427Y34331D01*
X26443Y34363D01*
Y34411D01*
X26427Y34443D01*
X26411Y34459D01*
X26363Y34475D01*
X26220D01*
Y34140D01*
X26709Y34427D02*
X26693Y34459D01*
X26645Y34475D01*
X26614D01*
X26566Y34459D01*
X26534Y34411D01*
X26518Y34331D01*
Y34252D01*
X26534Y34188D01*
X26566Y34156D01*
X26614Y34140D01*
X26629D01*
X26677Y34156D01*
X26709Y34188D01*
X26725Y34236D01*
Y34252D01*
X26709Y34299D01*
X26677Y34331D01*
X26629Y34347D01*
X26614D01*
X26566Y34331D01*
X26534Y34299D01*
X26518Y34252D01*
X36360Y37299D02*
X36503D01*
X36551Y37315D01*
X36567Y37331D01*
X36583Y37363D01*
Y37411D01*
X36567Y37443D01*
X36551Y37459D01*
X36503Y37475D01*
X36360D01*
Y37140D01*
X36849Y37475D02*
X36690D01*
X36674Y37331D01*
X36690Y37347D01*
X36738Y37363D01*
X36785D01*
X36833Y37347D01*
X36865Y37315D01*
X36881Y37267D01*
Y37236D01*
X36865Y37188D01*
X36833Y37156D01*
X36785Y37140D01*
X36738D01*
X36690Y37156D01*
X36674Y37172D01*
X36658Y37204D01*
X30750Y46359D02*
X30893D01*
X30941Y46375D01*
X30957Y46391D01*
X30973Y46423D01*
Y46471D01*
X30957Y46503D01*
X30941Y46519D01*
X30893Y46535D01*
X30750D01*
Y46200D01*
X31064Y46455D02*
Y46471D01*
X31080Y46503D01*
X31096Y46519D01*
X31128Y46535D01*
X31191D01*
X31223Y46519D01*
X31239Y46503D01*
X31255Y46471D01*
Y46439D01*
X31239Y46407D01*
X31207Y46359D01*
X31048Y46200D01*
X31271D01*
X31346Y46088D02*
X31601D01*
X31899Y46200D02*
X31771Y46535D01*
X31644Y46200D01*
X31692Y46312D02*
X31851D01*
X31977Y46423D02*
Y46200D01*
Y46359D02*
X32025Y46407D01*
X32056Y46423D01*
X32104D01*
X32136Y46407D01*
X32152Y46359D01*
Y46200D01*
Y46359D02*
X32200Y46407D01*
X32232Y46423D01*
X32280D01*
X32311Y46407D01*
X32327Y46359D01*
Y46200D01*
X32432Y46423D02*
Y46088D01*
Y46375D02*
X32464Y46407D01*
X32496Y46423D01*
X32544D01*
X32576Y46407D01*
X32608Y46375D01*
X32624Y46327D01*
Y46296D01*
X32608Y46248D01*
X32576Y46216D01*
X32544Y46200D01*
X32496D01*
X32464Y46216D01*
X32432Y46248D01*
X32695Y46471D02*
X32727Y46487D01*
X32775Y46535D01*
Y46200D01*
X35550Y32335D02*
Y32000D01*
Y32335D02*
X35662D01*
X35709Y32319D01*
X35741Y32287D01*
X35757Y32255D01*
X35773Y32207D01*
Y32127D01*
X35757Y32080D01*
X35741Y32048D01*
X35709Y32016D01*
X35662Y32000D01*
X35550D01*
X35848Y32271D02*
X35880Y32287D01*
X35928Y32335D01*
Y32000D01*
X31089Y32305D02*
X31073Y32337D01*
X31041Y32369D01*
X31009Y32385D01*
X30946D01*
X30914Y32369D01*
X30882Y32337D01*
X30866Y32305D01*
X30850Y32257D01*
Y32177D01*
X30866Y32130D01*
X30882Y32098D01*
X30914Y32066D01*
X30946Y32050D01*
X31009D01*
X31041Y32066D01*
X31073Y32098D01*
X31089Y32130D01*
X31215Y32385D02*
X31390D01*
X31295Y32257D01*
X31342D01*
X31374Y32241D01*
X31390Y32225D01*
X31406Y32177D01*
Y32146D01*
X31390Y32098D01*
X31358Y32066D01*
X31310Y32050D01*
X31263D01*
X31215Y32066D01*
X31199Y32082D01*
X31183Y32114D01*
X31481Y32321D02*
X31513Y32337D01*
X31561Y32385D01*
Y32050D01*
X31639Y36855D02*
X31623Y36887D01*
X31591Y36919D01*
X31559Y36935D01*
X31496D01*
X31464Y36919D01*
X31432Y36887D01*
X31416Y36855D01*
X31400Y36807D01*
Y36727D01*
X31416Y36680D01*
X31432Y36648D01*
X31464Y36616D01*
X31496Y36600D01*
X31559D01*
X31591Y36616D01*
X31623Y36648D01*
X31639Y36680D01*
X31765Y36935D02*
X31940D01*
X31845Y36807D01*
X31892D01*
X31924Y36791D01*
X31940Y36775D01*
X31956Y36727D01*
Y36696D01*
X31940Y36648D01*
X31908Y36616D01*
X31860Y36600D01*
X31813D01*
X31765Y36616D01*
X31749Y36632D01*
X31733Y36664D01*
X32127Y36935D02*
X32079Y36919D01*
X32047Y36871D01*
X32031Y36791D01*
Y36743D01*
X32047Y36664D01*
X32079Y36616D01*
X32127Y36600D01*
X32158D01*
X32206Y36616D01*
X32238Y36664D01*
X32254Y36743D01*
Y36791D01*
X32238Y36871D01*
X32206Y36919D01*
X32158Y36935D01*
X32127D01*
X34889Y36855D02*
X34873Y36887D01*
X34841Y36919D01*
X34809Y36935D01*
X34746D01*
X34714Y36919D01*
X34682Y36887D01*
X34666Y36855D01*
X34650Y36807D01*
Y36727D01*
X34666Y36680D01*
X34682Y36648D01*
X34714Y36616D01*
X34746Y36600D01*
X34809D01*
X34841Y36616D01*
X34873Y36648D01*
X34889Y36680D01*
X34999Y36855D02*
Y36871D01*
X35015Y36903D01*
X35031Y36919D01*
X35063Y36935D01*
X35126D01*
X35158Y36919D01*
X35174Y36903D01*
X35190Y36871D01*
Y36839D01*
X35174Y36807D01*
X35142Y36759D01*
X34983Y36600D01*
X35206D01*
X35488Y36823D02*
X35472Y36775D01*
X35440Y36743D01*
X35392Y36727D01*
X35377D01*
X35329Y36743D01*
X35297Y36775D01*
X35281Y36823D01*
Y36839D01*
X35297Y36887D01*
X35329Y36919D01*
X35377Y36935D01*
X35392D01*
X35440Y36919D01*
X35472Y36887D01*
X35488Y36823D01*
Y36743D01*
X35472Y36664D01*
X35440Y36616D01*
X35392Y36600D01*
X35361D01*
X35313Y36616D01*
X35297Y36648D01*
X37291Y38285D02*
X37132D01*
X37116Y38141D01*
X37132Y38157D01*
X37180Y38173D01*
X37227D01*
X37275Y38157D01*
X37307Y38125D01*
X37323Y38077D01*
Y38046D01*
X37307Y37998D01*
X37275Y37966D01*
X37227Y37950D01*
X37180D01*
X37132Y37966D01*
X37116Y37982D01*
X37100Y38014D01*
X37398Y38285D02*
X37525Y37950D01*
X37653Y38285D02*
X37525Y37950D01*
X29200Y37485D02*
X29423Y37150D01*
Y37485D02*
X29200Y37150D01*
X29498Y37421D02*
X29530Y37437D01*
X29578Y37485D01*
Y37150D01*
X35250Y44485D02*
Y44246D01*
X35266Y44198D01*
X35298Y44166D01*
X35346Y44150D01*
X35377D01*
X35425Y44166D01*
X35457Y44198D01*
X35473Y44246D01*
Y44485D01*
X35757Y44437D02*
X35741Y44469D01*
X35693Y44485D01*
X35661D01*
X35613Y44469D01*
X35581Y44421D01*
X35565Y44341D01*
Y44262D01*
X35581Y44198D01*
X35613Y44166D01*
X35661Y44150D01*
X35677D01*
X35725Y44166D01*
X35757Y44198D01*
X35773Y44246D01*
Y44262D01*
X35757Y44309D01*
X35725Y44341D01*
X35677Y44357D01*
X35661D01*
X35613Y44341D01*
X35581Y44309D01*
X35565Y44262D01*
X19300Y32035D02*
Y31796D01*
X19316Y31748D01*
X19348Y31716D01*
X19396Y31700D01*
X19427D01*
X19475Y31716D01*
X19507Y31748D01*
X19523Y31796D01*
Y32035D01*
X19807D02*
X19647D01*
X19631Y31891D01*
X19647Y31907D01*
X19695Y31923D01*
X19743D01*
X19791Y31907D01*
X19823Y31875D01*
X19839Y31827D01*
Y31796D01*
X19823Y31748D01*
X19791Y31716D01*
X19743Y31700D01*
X19695D01*
X19647Y31716D01*
X19631Y31732D01*
X19615Y31764D01*
X23265Y46598D02*
X22930D01*
X23265Y46710D02*
Y46487D01*
Y46447D02*
X22930Y46224D01*
X23265D02*
X22930Y46447D01*
X23201Y46149D02*
X23217Y46117D01*
X23265Y46070D01*
X22930D01*
X21523Y32987D02*
X21491Y33019D01*
X21443Y33035D01*
X21380D01*
X21332Y33019D01*
X21300Y32987D01*
Y32955D01*
X21316Y32923D01*
X21332Y32907D01*
X21364Y32891D01*
X21459Y32859D01*
X21491Y32843D01*
X21507Y32827D01*
X21523Y32796D01*
Y32748D01*
X21491Y32716D01*
X21443Y32700D01*
X21380D01*
X21332Y32716D01*
X21300Y32748D01*
X21598Y33035D02*
X21678Y32700D01*
X21757Y33035D02*
X21678Y32700D01*
X21757Y33035D02*
X21837Y32700D01*
X21917Y33035D02*
X21837Y32700D01*
X21983Y32971D02*
X22015Y32987D01*
X22063Y33035D01*
Y32700D01*
X23965Y46750D02*
X23630D01*
X23965D02*
Y46607D01*
X23949Y46559D01*
X23933Y46543D01*
X23901Y46527D01*
X23869D01*
X23837Y46543D01*
X23821Y46559D01*
X23805Y46607D01*
Y46750D01*
Y46638D02*
X23630Y46527D01*
X23965Y46452D02*
X23630Y46229D01*
X23965D02*
X23630Y46452D01*
X23901Y46154D02*
X23917Y46122D01*
X23965Y46074D01*
X23630D01*
X22665Y46780D02*
X22330D01*
X22665D02*
Y46637D01*
X22649Y46589D01*
X22633Y46573D01*
X22601Y46557D01*
X22569D01*
X22537Y46573D01*
X22521Y46589D01*
X22505Y46637D01*
Y46780D01*
Y46668D02*
X22330Y46557D01*
X22585Y46466D02*
X22601D01*
X22633Y46450D01*
X22649Y46434D01*
X22665Y46402D01*
Y46339D01*
X22649Y46307D01*
X22633Y46291D01*
X22601Y46275D01*
X22569D01*
X22537Y46291D01*
X22489Y46323D01*
X22330Y46482D01*
Y46259D01*
X22665Y46025D02*
X22442Y46184D01*
Y45945D01*
X22665Y46025D02*
X22330D01*
X24565Y46760D02*
X24230D01*
X24565D02*
Y46617D01*
X24549Y46569D01*
X24533Y46553D01*
X24501Y46537D01*
X24469D01*
X24437Y46553D01*
X24421Y46569D01*
X24405Y46617D01*
Y46760D01*
Y46648D02*
X24230Y46537D01*
X24485Y46446D02*
X24501D01*
X24533Y46430D01*
X24549Y46414D01*
X24565Y46382D01*
Y46319D01*
X24549Y46287D01*
X24533Y46271D01*
X24501Y46255D01*
X24469D01*
X24437Y46271D01*
X24389Y46303D01*
X24230Y46462D01*
Y46239D01*
X24565Y46132D02*
Y45957D01*
X24437Y46053D01*
Y46005D01*
X24421Y45973D01*
X24405Y45957D01*
X24357Y45941D01*
X24326D01*
X24278Y45957D01*
X24246Y45989D01*
X24230Y46037D01*
Y46084D01*
X24246Y46132D01*
X24262Y46148D01*
X24294Y46164D01*
X14800Y34485D02*
Y34150D01*
Y34485D02*
X14943D01*
X14991Y34469D01*
X15007Y34453D01*
X15023Y34421D01*
Y34389D01*
X15007Y34357D01*
X14991Y34341D01*
X14943Y34325D01*
X14800D01*
X14912D02*
X15023Y34150D01*
X15114Y34405D02*
Y34421D01*
X15130Y34453D01*
X15146Y34469D01*
X15178Y34485D01*
X15241D01*
X15273Y34469D01*
X15289Y34453D01*
X15305Y34421D01*
Y34389D01*
X15289Y34357D01*
X15257Y34309D01*
X15098Y34150D01*
X15321D01*
X15491Y34485D02*
X15444Y34469D01*
X15412Y34421D01*
X15396Y34341D01*
Y34293D01*
X15412Y34214D01*
X15444Y34166D01*
X15491Y34150D01*
X15523D01*
X15571Y34166D01*
X15603Y34214D01*
X15619Y34293D01*
Y34341D01*
X15603Y34421D01*
X15571Y34469D01*
X15523Y34485D01*
X15491D01*
X14650Y36885D02*
Y36550D01*
Y36885D02*
X14793D01*
X14841Y36869D01*
X14857Y36853D01*
X14873Y36821D01*
Y36789D01*
X14857Y36757D01*
X14841Y36741D01*
X14793Y36725D01*
X14650D01*
X14762D02*
X14873Y36550D01*
X14948Y36821D02*
X14980Y36837D01*
X15028Y36885D01*
Y36550D01*
X15400Y36773D02*
X15384Y36725D01*
X15353Y36693D01*
X15305Y36677D01*
X15289D01*
X15241Y36693D01*
X15209Y36725D01*
X15193Y36773D01*
Y36789D01*
X15209Y36837D01*
X15241Y36869D01*
X15289Y36885D01*
X15305D01*
X15353Y36869D01*
X15384Y36837D01*
X15400Y36773D01*
Y36693D01*
X15384Y36614D01*
X15353Y36566D01*
X15305Y36550D01*
X15273D01*
X15225Y36566D01*
X15209Y36598D01*
X19795Y34989D02*
X19763Y34973D01*
X19731Y34941D01*
X19715Y34909D01*
Y34846D01*
X19731Y34814D01*
X19763Y34782D01*
X19795Y34766D01*
X19843Y34750D01*
X19923D01*
X19970Y34766D01*
X20002Y34782D01*
X20034Y34814D01*
X20050Y34846D01*
Y34909D01*
X20034Y34941D01*
X20002Y34973D01*
X19970Y34989D01*
X19779Y35083D02*
X19763Y35115D01*
X19715Y35163D01*
X20050D01*
X19715Y35551D02*
X20050Y35392D01*
X19715Y35328D02*
Y35551D01*
X23939Y37705D02*
X23923Y37737D01*
X23891Y37769D01*
X23859Y37785D01*
X23796D01*
X23764Y37769D01*
X23732Y37737D01*
X23716Y37705D01*
X23700Y37657D01*
Y37577D01*
X23716Y37530D01*
X23732Y37498D01*
X23764Y37466D01*
X23796Y37450D01*
X23859D01*
X23891Y37466D01*
X23923Y37498D01*
X23939Y37530D01*
X24049Y37705D02*
Y37721D01*
X24065Y37753D01*
X24081Y37769D01*
X24113Y37785D01*
X24176D01*
X24208Y37769D01*
X24224Y37753D01*
X24240Y37721D01*
Y37689D01*
X24224Y37657D01*
X24192Y37609D01*
X24033Y37450D01*
X24256D01*
X23939Y38405D02*
X23923Y38437D01*
X23891Y38469D01*
X23859Y38485D01*
X23796D01*
X23764Y38469D01*
X23732Y38437D01*
X23716Y38405D01*
X23700Y38357D01*
Y38277D01*
X23716Y38230D01*
X23732Y38198D01*
X23764Y38166D01*
X23796Y38150D01*
X23859D01*
X23891Y38166D01*
X23923Y38198D01*
X23939Y38230D01*
X24065Y38485D02*
X24240D01*
X24145Y38357D01*
X24192D01*
X24224Y38341D01*
X24240Y38325D01*
X24256Y38277D01*
Y38246D01*
X24240Y38198D01*
X24208Y38166D01*
X24160Y38150D01*
X24113D01*
X24065Y38166D01*
X24049Y38182D01*
X24033Y38214D01*
X31139Y39455D02*
X31123Y39487D01*
X31091Y39519D01*
X31059Y39535D01*
X30996D01*
X30964Y39519D01*
X30932Y39487D01*
X30916Y39455D01*
X30900Y39407D01*
Y39327D01*
X30916Y39280D01*
X30932Y39248D01*
X30964Y39216D01*
X30996Y39200D01*
X31059D01*
X31091Y39216D01*
X31123Y39248D01*
X31139Y39280D01*
X31392Y39535D02*
X31233Y39312D01*
X31472D01*
X31392Y39535D02*
Y39200D01*
X33089Y39455D02*
X33073Y39487D01*
X33041Y39519D01*
X33009Y39535D01*
X32946D01*
X32914Y39519D01*
X32882Y39487D01*
X32866Y39455D01*
X32850Y39407D01*
Y39327D01*
X32866Y39280D01*
X32882Y39248D01*
X32914Y39216D01*
X32946Y39200D01*
X33009D01*
X33041Y39216D01*
X33073Y39248D01*
X33089Y39280D01*
X33374Y39535D02*
X33215D01*
X33199Y39391D01*
X33215Y39407D01*
X33263Y39423D01*
X33310D01*
X33358Y39407D01*
X33390Y39375D01*
X33406Y39327D01*
Y39296D01*
X33390Y39248D01*
X33358Y39216D01*
X33310Y39200D01*
X33263D01*
X33215Y39216D01*
X33199Y39232D01*
X33183Y39264D01*
X16189Y31705D02*
X16173Y31737D01*
X16141Y31769D01*
X16109Y31785D01*
X16046D01*
X16014Y31769D01*
X15982Y31737D01*
X15966Y31705D01*
X15950Y31657D01*
Y31577D01*
X15966Y31530D01*
X15982Y31498D01*
X16014Y31466D01*
X16046Y31450D01*
X16109D01*
X16141Y31466D01*
X16173Y31498D01*
X16189Y31530D01*
X16283Y31721D02*
X16315Y31737D01*
X16363Y31785D01*
Y31450D01*
X16560Y31785D02*
X16735D01*
X16640Y31657D01*
X16688D01*
X16720Y31641D01*
X16735Y31625D01*
X16751Y31577D01*
Y31546D01*
X16735Y31498D01*
X16704Y31466D01*
X16656Y31450D01*
X16608D01*
X16560Y31466D01*
X16544Y31482D01*
X16528Y31514D01*
X36650Y45559D02*
X36793D01*
X36841Y45575D01*
X36857Y45591D01*
X36873Y45623D01*
Y45671D01*
X36857Y45703D01*
X36841Y45719D01*
X36793Y45735D01*
X36650D01*
Y45400D01*
X36948Y45671D02*
X36980Y45687D01*
X37028Y45735D01*
Y45400D01*
X21260Y37999D02*
X21403D01*
X21451Y38015D01*
X21467Y38031D01*
X21483Y38063D01*
Y38111D01*
X21467Y38143D01*
X21451Y38159D01*
X21403Y38175D01*
X21260D01*
Y37840D01*
X21590Y38175D02*
X21765D01*
X21669Y38047D01*
X21717D01*
X21749Y38031D01*
X21765Y38015D01*
X21781Y37967D01*
Y37936D01*
X21765Y37888D01*
X21733Y37856D01*
X21685Y37840D01*
X21638D01*
X21590Y37856D01*
X21574Y37872D01*
X21558Y37904D01*
X17450Y37635D02*
Y37300D01*
Y37635D02*
X17593D01*
X17641Y37619D01*
X17657Y37603D01*
X17673Y37571D01*
Y37539D01*
X17657Y37507D01*
X17641Y37491D01*
X17593Y37475D01*
X17450D01*
X17562D02*
X17673Y37300D01*
X17955Y37523D02*
X17939Y37475D01*
X17907Y37443D01*
X17859Y37427D01*
X17844D01*
X17796Y37443D01*
X17764Y37475D01*
X17748Y37523D01*
Y37539D01*
X17764Y37587D01*
X17796Y37619D01*
X17844Y37635D01*
X17859D01*
X17907Y37619D01*
X17939Y37587D01*
X17955Y37523D01*
Y37443D01*
X17939Y37364D01*
X17907Y37316D01*
X17859Y37300D01*
X17828D01*
X17780Y37316D01*
X17764Y37348D01*
X17450Y36885D02*
Y36550D01*
Y36885D02*
X17593D01*
X17641Y36869D01*
X17657Y36853D01*
X17673Y36821D01*
Y36789D01*
X17657Y36757D01*
X17641Y36741D01*
X17593Y36725D01*
X17450D01*
X17562D02*
X17673Y36550D01*
X17748Y36821D02*
X17780Y36837D01*
X17828Y36885D01*
Y36550D01*
X18089Y36885D02*
X18041Y36869D01*
X18009Y36821D01*
X17993Y36741D01*
Y36693D01*
X18009Y36614D01*
X18041Y36566D01*
X18089Y36550D01*
X18121D01*
X18169Y36566D01*
X18200Y36614D01*
X18216Y36693D01*
Y36741D01*
X18200Y36821D01*
X18169Y36869D01*
X18121Y36885D01*
X18089D01*
X34750Y35885D02*
Y35646D01*
X34766Y35598D01*
X34798Y35566D01*
X34846Y35550D01*
X34877D01*
X34925Y35566D01*
X34957Y35598D01*
X34973Y35646D01*
Y35885D01*
X35065Y35821D02*
X35097Y35837D01*
X35145Y35885D01*
Y35550D01*
X24250Y34785D02*
Y34546D01*
X24266Y34498D01*
X24298Y34466D01*
X24346Y34450D01*
X24377D01*
X24425Y34466D01*
X24457Y34498D01*
X24473Y34546D01*
Y34785D01*
X24581Y34705D02*
Y34721D01*
X24597Y34753D01*
X24613Y34769D01*
X24645Y34785D01*
X24709D01*
X24741Y34769D01*
X24757Y34753D01*
X24773Y34721D01*
Y34689D01*
X24757Y34657D01*
X24725Y34609D01*
X24565Y34450D01*
X24789D01*
X33000Y44485D02*
Y44246D01*
X33016Y44198D01*
X33048Y44166D01*
X33096Y44150D01*
X33127D01*
X33175Y44166D01*
X33207Y44198D01*
X33223Y44246D01*
Y44485D01*
X33347D02*
X33523D01*
X33427Y44357D01*
X33475D01*
X33507Y44341D01*
X33523Y44325D01*
X33539Y44277D01*
Y44246D01*
X33523Y44198D01*
X33491Y44166D01*
X33443Y44150D01*
X33395D01*
X33347Y44166D01*
X33331Y44182D01*
X33315Y44214D01*
X16950Y34485D02*
Y34150D01*
Y34485D02*
X17093D01*
X17141Y34469D01*
X17157Y34453D01*
X17173Y34421D01*
Y34389D01*
X17157Y34357D01*
X17141Y34341D01*
X17093Y34325D01*
X16950D01*
X17062D02*
X17173Y34150D01*
X17248Y34421D02*
X17280Y34437D01*
X17328Y34485D01*
Y34150D01*
X17493Y34421D02*
X17525Y34437D01*
X17573Y34485D01*
Y34150D01*
X14650Y37635D02*
Y37300D01*
Y37635D02*
X14793D01*
X14841Y37619D01*
X14857Y37603D01*
X14873Y37571D01*
Y37539D01*
X14857Y37507D01*
X14841Y37491D01*
X14793Y37475D01*
X14650D01*
X14762D02*
X14873Y37300D01*
X14948Y37571D02*
X14980Y37587D01*
X15028Y37635D01*
Y37300D01*
X15273Y37635D02*
X15225Y37619D01*
X15209Y37587D01*
Y37555D01*
X15225Y37523D01*
X15257Y37507D01*
X15321Y37491D01*
X15369Y37475D01*
X15400Y37443D01*
X15416Y37412D01*
Y37364D01*
X15400Y37332D01*
X15384Y37316D01*
X15337Y37300D01*
X15273D01*
X15225Y37316D01*
X15209Y37332D01*
X15193Y37364D01*
Y37412D01*
X15209Y37443D01*
X15241Y37475D01*
X15289Y37491D01*
X15353Y37507D01*
X15384Y37523D01*
X15400Y37555D01*
Y37587D01*
X15384Y37619D01*
X15337Y37635D01*
X15273D01*
X23799Y43661D02*
X23811Y43695D01*
X23811Y43740D01*
X23799Y43774D01*
X23754Y43819D01*
X23720Y43830D01*
X23675Y43830D01*
X23642Y43819D01*
X23596Y43796D01*
X23540Y43740D01*
X23518Y43695D01*
X23506Y43661D01*
X23506Y43616D01*
X23518Y43582D01*
X23563Y43537D01*
X23596Y43526D01*
X23642Y43526D01*
X23675Y43537D01*
X23877Y43606D02*
X23911Y43595D01*
X23978Y43595D01*
X23742Y43358D01*
X24163Y43252D02*
X24118Y43230D01*
X24073Y43230D01*
X24028Y43252D01*
X24017Y43264D01*
X23994Y43309D01*
X23994Y43354D01*
X24017Y43399D01*
X24028Y43410D01*
X24073Y43433D01*
X24118D01*
X24163Y43410D01*
X24174Y43399D01*
X24197Y43354D01*
Y43309D01*
X24163Y43252D01*
X24107Y43196D01*
X24039Y43151D01*
X23983Y43140D01*
X23938Y43162D01*
X23915Y43185D01*
X23893Y43230D01*
X23904Y43264D01*
X23991Y42952D02*
X24171Y42771D01*
X24461Y42639D02*
X24607Y42966D01*
X24280Y42820D01*
X24393Y42865D02*
X24506Y42752D01*
X24673Y42742D02*
X24516Y42584D01*
X24628Y42697D02*
X24696D01*
X24730Y42686D01*
X24764Y42652D01*
X24775Y42618D01*
X24752Y42573D01*
X24640Y42460D01*
X24752Y42573D02*
X24820D01*
X24854Y42562D01*
X24888Y42528D01*
X24899Y42494D01*
X24876Y42449D01*
X24764Y42336D01*
X24996Y42420D02*
X24759Y42183D01*
X24962Y42386D02*
X25007D01*
X25041Y42375D01*
X25075Y42341D01*
X25086Y42307D01*
X25086Y42262D01*
X25063Y42217D01*
X25041Y42194D01*
X24996Y42172D01*
X24951Y42172D01*
X24917Y42183D01*
X24883Y42217D01*
X24872Y42251D01*
Y42296D01*
X25215Y42268D02*
X25249Y42256D01*
X25317D01*
X25080Y42020D01*
X24549Y43761D02*
X24561Y43795D01*
X24561Y43840D01*
X24549Y43874D01*
X24504Y43919D01*
X24470Y43930D01*
X24425Y43930D01*
X24392Y43919D01*
X24346Y43896D01*
X24290Y43840D01*
X24268Y43795D01*
X24256Y43761D01*
X24256Y43716D01*
X24268Y43682D01*
X24313Y43637D01*
X24346Y43626D01*
X24392Y43626D01*
X24425Y43637D01*
X24627Y43706D02*
X24661Y43695D01*
X24728Y43695D01*
X24492Y43458D01*
X24902Y43521D02*
X24857Y43544D01*
X24823Y43533D01*
X24800Y43510D01*
X24789Y43476D01*
X24800Y43442D01*
X24834Y43386D01*
X24857Y43341D01*
Y43296D01*
X24846Y43262D01*
X24812Y43228D01*
X24778Y43217D01*
X24755D01*
X24710Y43240D01*
X24665Y43285D01*
X24643Y43330D01*
Y43352D01*
X24654Y43386D01*
X24688Y43420D01*
X24722Y43431D01*
X24767Y43431D01*
X24812Y43409D01*
X24868Y43375D01*
X24902Y43364D01*
X24936Y43375D01*
X24958Y43397D01*
X24969Y43431D01*
X24947Y43476D01*
X24902Y43521D01*
X24741Y43052D02*
X24921Y42871D01*
X25211Y42739D02*
X25357Y43066D01*
X25030Y42920D01*
X25143Y42965D02*
X25256Y42852D01*
X25423Y42842D02*
X25266Y42684D01*
X25378Y42797D02*
X25446D01*
X25480Y42786D01*
X25514Y42752D01*
X25525Y42718D01*
X25502Y42673D01*
X25390Y42560D01*
X25502Y42673D02*
X25570D01*
X25604Y42662D01*
X25638Y42628D01*
X25649Y42594D01*
X25626Y42549D01*
X25514Y42436D01*
X25746Y42520D02*
X25509Y42283D01*
X25712Y42486D02*
X25757D01*
X25791Y42475D01*
X25825Y42441D01*
X25836Y42407D01*
X25836Y42362D01*
X25813Y42317D01*
X25791Y42294D01*
X25746Y42272D01*
X25701Y42272D01*
X25667Y42283D01*
X25633Y42317D01*
X25622Y42351D01*
Y42396D01*
X25965Y42368D02*
X25999Y42356D01*
X26067D01*
X25830Y42120D01*
X28655Y38461D02*
X28687Y38477D01*
X28719Y38509D01*
X28735Y38541D01*
Y38604D01*
X28719Y38636D01*
X28687Y38668D01*
X28655Y38684D01*
X28607Y38700D01*
X28527D01*
X28480Y38684D01*
X28448Y38668D01*
X28416Y38636D01*
X28400Y38604D01*
Y38541D01*
X28416Y38509D01*
X28448Y38477D01*
X28480Y38461D01*
X28671Y38367D02*
X28687Y38335D01*
X28735Y38287D01*
X28400D01*
X28687Y37930D02*
X28719Y37946D01*
X28735Y37994D01*
Y38026D01*
X28719Y38074D01*
X28671Y38106D01*
X28591Y38122D01*
X28512D01*
X28448Y38106D01*
X28416Y38074D01*
X28400Y38026D01*
Y38010D01*
X28416Y37962D01*
X28448Y37930D01*
X28496Y37915D01*
X28512D01*
X28559Y37930D01*
X28591Y37962D01*
X28607Y38010D01*
Y38026D01*
X28591Y38074D01*
X28559Y38106D01*
X28512Y38122D01*
X28288Y37841D02*
Y37586D01*
X28400Y37288D02*
X28735Y37416D01*
X28400Y37543D01*
X28512Y37496D02*
Y37336D01*
X28623Y37210D02*
X28400D01*
X28559D02*
X28607Y37163D01*
X28623Y37131D01*
Y37083D01*
X28607Y37051D01*
X28559Y37035D01*
X28400D01*
X28559D02*
X28607Y36987D01*
X28623Y36955D01*
Y36908D01*
X28607Y36876D01*
X28559Y36860D01*
X28400D01*
X28623Y36755D02*
X28288D01*
X28575D02*
X28607Y36723D01*
X28623Y36691D01*
Y36643D01*
X28607Y36611D01*
X28575Y36579D01*
X28527Y36563D01*
X28496D01*
X28448Y36579D01*
X28416Y36611D01*
X28400Y36643D01*
Y36691D01*
X28416Y36723D01*
X28448Y36755D01*
X28671Y36492D02*
X28687Y36460D01*
X28735Y36412D01*
X28400D01*
X27905Y38461D02*
X27937Y38477D01*
X27969Y38509D01*
X27985Y38541D01*
Y38604D01*
X27969Y38636D01*
X27937Y38668D01*
X27905Y38684D01*
X27857Y38700D01*
X27777D01*
X27730Y38684D01*
X27698Y38668D01*
X27666Y38636D01*
X27650Y38604D01*
Y38541D01*
X27666Y38509D01*
X27698Y38477D01*
X27730Y38461D01*
X27921Y38367D02*
X27937Y38335D01*
X27985Y38287D01*
X27650D01*
X27985Y37962D02*
X27762Y38122D01*
Y37883D01*
X27985Y37962D02*
X27650D01*
X27538Y37824D02*
Y37569D01*
X27650Y37271D02*
X27985Y37398D01*
X27650Y37526D01*
X27762Y37478D02*
Y37319D01*
X27873Y37193D02*
X27650D01*
X27809D02*
X27857Y37145D01*
X27873Y37113D01*
Y37065D01*
X27857Y37033D01*
X27809Y37018D01*
X27650D01*
X27809D02*
X27857Y36970D01*
X27873Y36938D01*
Y36890D01*
X27857Y36858D01*
X27809Y36842D01*
X27650D01*
X27873Y36737D02*
X27538D01*
X27825D02*
X27857Y36705D01*
X27873Y36673D01*
Y36626D01*
X27857Y36594D01*
X27825Y36562D01*
X27777Y36546D01*
X27746D01*
X27698Y36562D01*
X27666Y36594D01*
X27650Y36626D01*
Y36673D01*
X27666Y36705D01*
X27698Y36737D01*
X27921Y36474D02*
X27937Y36442D01*
X27985Y36395D01*
X27650D01*
X35510Y36412D02*
X35457Y36465D01*
X35352D01*
X35300Y36412D01*
Y36202D01*
X35352Y36150D01*
X35457D01*
X35510Y36202D01*
Y36307D01*
X35405D01*
X35615Y36150D02*
Y36465D01*
X35825Y36150D01*
Y36465D01*
X35930D02*
Y36150D01*
X36087D01*
X36140Y36202D01*
Y36412D01*
X36087Y36465D01*
X35930D01*
X35550Y35200D02*
Y35410D01*
X35655Y35515D01*
X35760Y35410D01*
Y35200D01*
Y35357D01*
X35550D01*
X35865Y35462D02*
X35917Y35515D01*
X36022D01*
X36075Y35462D01*
Y35410D01*
X36022Y35357D01*
X35970D01*
X36022D01*
X36075Y35305D01*
Y35252D01*
X36022Y35200D01*
X35917D01*
X35865Y35252D01*
X35600Y33750D02*
Y33960D01*
X35705Y34065D01*
X35810Y33960D01*
Y33750D01*
Y33907D01*
X35600D01*
X36125Y33750D02*
X35915D01*
X36125Y33960D01*
Y34012D01*
X36072Y34065D01*
X35967D01*
X35915Y34012D01*
X35650Y32850D02*
Y33060D01*
X35755Y33165D01*
X35860Y33060D01*
Y32850D01*
Y33007D01*
X35650D01*
X35965Y32850D02*
X36070D01*
X36017D01*
Y33165D01*
X35965Y33112D01*
X36350Y31407D02*
X36560D01*
X36455Y31512D02*
Y31302D01*
X36875Y31565D02*
X36665D01*
Y31407D01*
X36770Y31460D01*
X36822D01*
X36875Y31407D01*
Y31302D01*
X36822Y31250D01*
X36717D01*
X36665Y31302D01*
X36980Y31565D02*
Y31355D01*
X37085Y31250D01*
X37190Y31355D01*
Y31565D01*
X35500Y46307D02*
X35710D01*
X35815Y46150D02*
X35920D01*
X35867D01*
Y46465D01*
X35815Y46412D01*
X36287Y46150D02*
X36077D01*
X36287Y46360D01*
Y46412D01*
X36235Y46465D01*
X36130D01*
X36077Y46412D01*
X36392Y46465D02*
Y46255D01*
X36497Y46150D01*
X36602Y46255D01*
Y46465D01*
X33100Y46307D02*
X33310D01*
X33205Y46412D02*
Y46202D01*
X33415Y46150D02*
X33520D01*
X33467D01*
Y46465D01*
X33415Y46412D01*
X33887Y46150D02*
X33677D01*
X33887Y46360D01*
Y46412D01*
X33835Y46465D01*
X33730D01*
X33677Y46412D01*
X33992Y46465D02*
Y46255D01*
X34097Y46150D01*
X34202Y46255D01*
Y46465D01*
X34710Y46412D02*
X34657Y46465D01*
X34552D01*
X34500Y46412D01*
Y46202D01*
X34552Y46150D01*
X34657D01*
X34710Y46202D01*
Y46307D01*
X34605D01*
X34815Y46150D02*
Y46465D01*
X35025Y46150D01*
Y46465D01*
X35130D02*
Y46150D01*
X35287D01*
X35340Y46202D01*
Y46412D01*
X35287Y46465D01*
X35130D01*
X20735Y36750D02*
X21050D01*
X20945Y36855D01*
X21050Y36960D01*
X20735D01*
Y37065D02*
X21050D01*
Y37222D01*
X20998Y37275D01*
X20945D01*
X20893Y37222D01*
Y37065D01*
Y37222D01*
X20840Y37275D01*
X20788D01*
X20735Y37222D01*
Y37065D01*
X21050Y37380D02*
Y37485D01*
Y37432D01*
X20735D01*
X20788Y37380D01*
X20735Y34500D02*
X21050D01*
X20945Y34605D01*
X21050Y34710D01*
X20735D01*
Y34815D02*
X21050D01*
Y34972D01*
X20998Y35025D01*
X20945D01*
X20893Y34972D01*
Y34815D01*
Y34972D01*
X20840Y35025D01*
X20788D01*
X20735Y34972D01*
Y34815D01*
X21050Y35340D02*
Y35130D01*
X20840Y35340D01*
X20788D01*
X20735Y35287D01*
Y35182D01*
X20788Y35130D01*
Y35810D02*
X20735Y35757D01*
Y35652D01*
X20788Y35600D01*
X20998D01*
X21050Y35652D01*
Y35757D01*
X20998Y35810D01*
X20893D01*
Y35705D01*
X21050Y35915D02*
X20735D01*
X21050Y36125D01*
X20735D01*
Y36230D02*
X21050D01*
Y36387D01*
X20998Y36440D01*
X20788D01*
X20735Y36387D01*
Y36230D01*
X17000Y43707D02*
X17210D01*
X17525Y43865D02*
X17315D01*
Y43707D01*
X17420Y43760D01*
X17472D01*
X17525Y43707D01*
Y43602D01*
X17472Y43550D01*
X17367D01*
X17315Y43602D01*
X17630Y43865D02*
Y43655D01*
X17735Y43550D01*
X17840Y43655D01*
Y43865D01*
X20100Y43707D02*
X20310D01*
X20205Y43812D02*
Y43602D01*
X20625Y43865D02*
X20415D01*
Y43707D01*
X20520Y43760D01*
X20572D01*
X20625Y43707D01*
Y43602D01*
X20572Y43550D01*
X20467D01*
X20415Y43602D01*
X20730Y43865D02*
Y43655D01*
X20835Y43550D01*
X20940Y43655D01*
Y43865D01*
X18100Y43707D02*
X18310D01*
X18205Y43812D02*
Y43602D01*
X18415Y43865D02*
X18520D01*
X18467D01*
Y43550D01*
X18415D01*
X18520D01*
X18677D02*
Y43865D01*
X18887Y43550D01*
Y43865D01*
X19050Y43707D02*
X19260D01*
X19365Y43865D02*
X19470D01*
X19417D01*
Y43550D01*
X19365D01*
X19470D01*
X19627D02*
Y43865D01*
X19837Y43550D01*
Y43865D01*
X27950Y43707D02*
X28160D01*
X28265Y43865D02*
X28370D01*
X28317D01*
Y43550D01*
X28265D01*
X28370D01*
X28527D02*
Y43865D01*
X28737Y43550D01*
Y43865D01*
X27000Y43707D02*
X27210D01*
X27105Y43812D02*
Y43602D01*
X27315Y43865D02*
X27420D01*
X27367D01*
Y43550D01*
X27315D01*
X27420D01*
X27577D02*
Y43865D01*
X27787Y43550D01*
Y43865D01*
X29000Y43707D02*
X29210D01*
X29105Y43812D02*
Y43602D01*
X29525Y43865D02*
X29315D01*
Y43707D01*
X29420Y43760D01*
X29472D01*
X29525Y43707D01*
Y43602D01*
X29472Y43550D01*
X29367D01*
X29315Y43602D01*
X29630Y43865D02*
Y43655D01*
X29735Y43550D01*
X29840Y43655D01*
Y43865D01*
X25900Y43707D02*
X26110D01*
X26425Y43865D02*
X26215D01*
Y43707D01*
X26320Y43760D01*
X26372D01*
X26425Y43707D01*
Y43602D01*
X26372Y43550D01*
X26267D01*
X26215Y43602D01*
X26530Y43865D02*
Y43655D01*
X26635Y43550D01*
X26740Y43655D01*
Y43865D01*
D57*
X17525Y44103D02*
G03*
X17525Y44103I-49J0D01*
G01*
X26449Y44103D02*
G03*
X26449Y44103I-49J0D01*
G01*
X35338Y38100D02*
G03*
X35338Y38100I-49J0D01*
G01*
X20361Y32106D02*
G03*
X20361Y32106I-49J0D01*
G01*
X34476Y35754D02*
G03*
X34476Y35754I-49J0D01*
G01*
X23076Y37085D02*
G03*
X23076Y37085I-49J0D01*
G01*
X20109Y41925D02*
G03*
X20109Y41925I-49J0D01*
G01*
X29034Y41925D02*
G03*
X29034Y41925I-49J0D01*
G01*
X33849Y43964D02*
G03*
X33849Y43964I-49J0D01*
G01*
X35065Y42700D02*
G03*
X35065Y42700I-49J0D01*
G01*
D58*
X19554Y32609D02*
G03*
X19554Y32609I-118J0D01*
G01*
X33886Y34868D02*
G03*
X33886Y34868I-118J0D01*
G01*
X23982Y36591D02*
G03*
X23982Y36591I-118J0D01*
G01*
D59*
X24289Y32900D02*
G03*
X24289Y32900I-689J0D01*
G01*
X24820Y32412D02*
Y33388D01*
X22502Y34120D02*
X24698D01*
X22502Y31680D02*
X24698D01*
X22380Y32412D02*
Y33388D01*
D60*
X19724Y41079D02*
G03*
X19724Y41079I-79J0D01*
G01*
X28648Y41079D02*
G03*
X28648Y41079I-79J0D01*
G01*
D61*
X22862Y37721D02*
Y37879D01*
X23138Y37721D02*
Y37879D01*
X20863Y40980D02*
Y41020D01*
X20588Y40980D02*
Y41020D01*
X16376Y46629D02*
X21576D01*
X16376Y44359D02*
Y46629D01*
X21576Y44359D02*
Y46629D01*
X16376Y44359D02*
X21576D01*
X25300Y46629D02*
X30500D01*
X25300Y44359D02*
Y46629D01*
X30500Y44359D02*
Y46629D01*
X25300Y44359D02*
X30500D01*
X34344Y37175D02*
Y37529D01*
X29856Y37175D02*
Y37529D01*
Y37175D02*
X34344D01*
X29856Y38671D02*
Y39025D01*
X34344Y38671D02*
Y39025D01*
X29856D02*
X34344D01*
X18570Y34184D02*
X19830D01*
X18570Y32216D02*
X19830D01*
X18570D02*
Y34184D01*
X19830Y32216D02*
Y34184D01*
X22982Y44809D02*
X23218D01*
X23682Y44809D02*
X23918D01*
X24262Y45321D02*
Y45479D01*
X24538Y45321D02*
Y45479D01*
X36400Y45000D02*
Y46000D01*
X33400Y45000D02*
X36400D01*
X33400D02*
Y46000D01*
X36400D01*
X31839Y35261D02*
X34161D01*
X31839Y32939D02*
X34161D01*
Y35261D01*
X31839Y32939D02*
Y35261D01*
X23470Y35016D02*
Y36984D01*
X24730Y35016D02*
Y36984D01*
X23470D02*
X24730D01*
X23470Y35016D02*
X24730D01*
X17991Y41394D02*
X19960D01*
X17991Y40606D02*
X19960D01*
Y41394D01*
X17991Y40606D02*
Y41394D01*
X26916Y41394D02*
X28884D01*
X26916Y40606D02*
X28884D01*
Y41394D01*
X26916Y40606D02*
Y41394D01*
X35991Y31582D02*
Y31818D01*
X34021Y31562D02*
X34179D01*
X34021Y31838D02*
X34179D01*
X35909Y37982D02*
Y38218D01*
X36421Y38562D02*
X36579D01*
X36421Y38838D02*
X36579D01*
X29788Y40980D02*
Y41020D01*
X29512Y40980D02*
Y41020D01*
X22362Y45321D02*
Y45479D01*
X22638Y45321D02*
Y45479D01*
X36300Y36800D02*
X37300D01*
Y31800D02*
Y36800D01*
X36300Y31800D02*
Y36800D01*
Y31800D02*
X37300D01*
X21200Y34500D02*
X22200D01*
X21200D02*
Y37500D01*
X22200D01*
Y34500D02*
Y37500D01*
X32997Y43708D02*
X34847D01*
X32997Y39692D02*
X34847D01*
X32997D02*
Y43708D01*
X34847Y39692D02*
Y43708D01*
X34650Y39692D02*
Y43708D01*
X36925Y39594D02*
Y43806D01*
X37122Y39594D02*
Y43806D01*
X35272Y39594D02*
Y43806D01*
X37122D01*
X35272Y39594D02*
X37122D01*
X29600Y31800D02*
Y33800D01*
X26600Y31800D02*
Y33800D01*
X29600D01*
X26600Y31800D02*
X29600D01*
X27683D02*
X29600D01*
D62*
X29910Y33415D02*
X29805Y33362D01*
X29700Y33257D01*
Y33152D01*
X29752Y33100D01*
X29857D01*
X29910Y33152D01*
Y33205D01*
X29857Y33257D01*
X29700D01*
X29910Y32415D02*
X29700D01*
Y32257D01*
X29805Y32310D01*
X29857D01*
X29910Y32257D01*
Y32152D01*
X29857Y32100D01*
X29752D01*
X29700Y32152D01*
X26410Y33150D02*
X26200D01*
X26410Y33360D01*
Y33412D01*
X26357Y33465D01*
X26252D01*
X26200Y33412D01*
X26300Y32100D02*
X26405D01*
X26352D01*
Y32415D01*
X26300Y32362D01*
M02*
